<svg width="980" height="938" viewBox="0 0 980 938" fill="none" xmlns="http://www.w3.org/2000/svg">
<g clip-path="url(#clip0_102_2)">
<path d="M834.7 454.3C643.1 343.7 333.4 343.7 143 454.3C-47.4 565 -46.4 744.3 145.3 855C336.9 965.6 646.6 965.6 837 855C1027.4 744.3 1026.4 565 834.7 454.3Z" fill="#F5F5F5"/>
<path d="M104.4 727.5C91 719.8 69.2 719.8 55.9 727.5C42.5 735.3 42.6 747.9 56 755.6C69.5 763.4 91.2 763.4 104.6 755.6C118 747.9 117.9 735.3 104.4 727.5Z" fill="#E0E0E0"/>
<path d="M84.2 645.2L91 649.1C94 650.8 97.7 650.8 100.7 649.1L509.5 413.1C512.1 411.6 512.1 407.9 509.5 406.4L502.5 402.3C499.5 400.6 495.8 400.6 492.8 402.3L84.2 638.5C81.6 640 81.6 643.7 84.2 645.2Z" fill="#E0E0E0"/>
<path d="M128.4 689.1L130.7 690.4C131.8 691 133.1 691 134.1 690.4L275.9 608.6C276.8 608 276.8 606.8 275.9 606.2L273.5 604.8C272.5 604.2 271.2 604.2 270.1 604.8L128.4 686.7C127.5 687.3 127.5 688.6 128.4 689.1Z" fill="#E0E0E0"/>
<path d="M849.9 679.8L740 616.1C733.8 612.5 726.2 612.5 720.1 616.1L619.8 674L516.8 614.8C512.7 612.4 507.7 612.4 503.6 614.8L324.3 718.4C322.8 719.2 322.8 721.3 324.3 722.2L626.1 895.9C630.2 898.3 635.2 898.3 639.3 895.9L818.6 792.3C820.1 791.5 820.1 789.4 818.6 788.5L746.7 747.1L849.9 687.4C852.8 685.7 852.8 681.5 849.9 679.8Z" fill="#E0E0E0"/>
<path d="M924 733.7C909.8 725.5 886.9 725.5 872.8 733.7C858.7 741.9 858.8 755.2 873 763.4C887.2 771.5 910.1 771.5 924.2 763.4C938.2 755.2 938.2 741.9 924 733.7Z" fill="#E0E0E0"/>
<path d="M112.8 682.8L80.2001 683.8L47.7001 682.8C46.3001 704.8 50.6001 727.2 56.5001 738.2C57.6001 740.6 59.7001 742.9 63.0001 744.8C72.6001 750.3 88.1001 750.3 97.6001 744.8C100.9 742.8 103.1 740.5 104.1 738C110 727 114.2 704.7 112.8 682.8Z" fill="white"/>
<path d="M103.2 669.5C115.9 676.9 116 688.8 103.3 696.2C90.7 703.6 70 703.6 57.3 696.2C44.5 688.8 44.5 676.9 57.1 669.5C69.8 662.1 90.4 662.1 103.2 669.5Z" fill="#EBEBEB"/>
<path d="M98.0999 672.4C108.1 678.2 108.2 687.5 98.2999 693.3C88.3999 699 72.2999 699 62.2999 693.3C52.3999 687.5 52.2999 678.2 62.1999 672.4C72.0999 666.7 88.1999 666.7 98.0999 672.4Z" fill="#E0E0E0"/>
<g opacity="0.1">
<path d="M98.0999 672.4C108.1 678.2 108.2 687.5 98.2999 693.3C88.3999 699 72.2999 699 62.2999 693.3C52.3999 687.5 52.2999 678.2 62.1999 672.4C72.0999 666.7 88.1999 666.7 98.0999 672.4Z" fill="black"/>
</g>
<path d="M63.5998 616.2C58.2998 609.6 52.1998 603.7 47.2998 596.8C43.9998 592.1 41.1998 586.3 42.5998 580.7C43.8998 575.5 48.7998 571.7 53.9998 570.7C59.2998 569.7 64.7998 571.3 69.2998 574.1C73.8998 576.9 77.5998 580.9 80.8998 585.1C99.0998 608 108 638.1 105.1 667.2C104.8 670.5 104.2 674 102.1 676.6C99.7998 679.4 95.7998 680.6 92.2998 679.6C83.4998 676.9 84.6998 665 83.1998 657.9C81.1998 648.2 77.7998 638.9 72.9998 630.2C70.2998 625.3 67.1998 620.6 63.5998 616.2Z" fill="#E40070"/>
<path opacity="0.2" d="M63.5998 616.2C58.2998 609.6 52.1998 603.7 47.2998 596.8C43.9998 592.1 41.1998 586.3 42.5998 580.7C43.8998 575.5 48.7998 571.7 53.9998 570.7C59.2998 569.7 64.7998 571.3 69.2998 574.1C73.8998 576.9 77.5998 580.9 80.8998 585.1C99.0998 608 108 638.1 105.1 667.2C104.8 670.5 104.2 674 102.1 676.6C99.7998 679.4 95.7998 680.6 92.2998 679.6C83.4998 676.9 84.6998 665 83.1998 657.9C81.1998 648.2 77.7998 638.9 72.9998 630.2C70.2998 625.3 67.1998 620.6 63.5998 616.2Z" fill="white"/>
<path d="M92.9001 670.6C92.6001 670.6 92.3001 670.3 92.3001 669.9C91.7001 655.7 87.0001 607.1 53.5001 579.5C53.2001 579.2 53.2001 578.7 53.4001 578.4C53.7001 578.1 54.2001 578 54.5001 578.3C88.5001 606.3 93.2001 655.4 93.8001 669.8C93.8001 670.3 93.5001 670.6 93.1001 670.7C93.0335 670.7 92.9668 670.667 92.9001 670.6Z" fill="#F0F0F0"/>
<path d="M97.7999 672.2C96.7999 677.8 91.9999 684.7 86.8999 687.3C81.8999 689.8 76.0999 690.5 70.4999 690C64.6999 689.5 59.1999 687.9 53.7999 686.1C51.0999 685.2 48.0999 683.9 47.7999 680.6C47.5999 678.9 48.3999 677.2 49.6999 675.9C50.2332 675.367 50.7999 674.867 51.3999 674.4C52.6999 673.5 52.0999 671.5 50.4999 671.3C48.8999 671.233 47.3332 671.067 45.7999 670.8C42.0999 670.1 38.4999 668.7 35.7999 666.2C33.6999 664.4 32.0999 662 31.0999 659.4C30.2999 657.2 30.0999 654.4 31.7999 652.7C32.7999 651.7 34.1999 651.4 35.4999 651.1C36.6999 650.833 37.8999 650.6 39.0999 650.4C40.6999 650.2 40.8999 648 39.4999 647.4L34.3999 645.3C32.9999 644.7 31.4999 644.1 30.5999 642.9C28.9999 641 29.0999 638.3 29.5999 635.9C30.1999 632.8 31.2999 629.7 31.9999 626.6C32.7999 623.5 33.1999 620.1 32.3999 617C41.7999 616.1 51.4999 616.5 60.6999 618.9C63.3999 619.6 66.1999 620.5 68.3999 622.3C71.5999 624.8 72.3999 628.6 71.9999 632.7C71.9999 633.5 72.9999 633.8 73.3999 633.1L76.5999 627.1C77.5999 625.3 79.7999 624.7 81.6999 625.5C84.3999 626.8 86.8999 628.9 88.9999 631.3C91.2999 633.9 92.4999 637.3 92.1999 640.8C91.7999 645.4 90.9999 650.1 89.7999 654.6C89.4999 655.8 90.8999 656.7 91.8999 656L91.9999 655.9C92.8999 655.3 93.9999 654.9 95.0999 655C97.8999 655.4 98.5999 658.3 98.7999 660.7C99.0999 664.3 98.4999 668.5 97.7999 672.2Z" fill="#E40070"/>
<path opacity="0.2" d="M97.7999 672.2C96.7999 677.8 91.9999 684.7 86.8999 687.3C81.8999 689.8 76.0999 690.5 70.4999 690C64.6999 689.5 59.1999 687.9 53.7999 686.1C51.0999 685.2 48.0999 683.9 47.7999 680.6C47.5999 678.9 48.3999 677.2 49.6999 675.9C50.2332 675.367 50.7999 674.867 51.3999 674.4C52.6999 673.5 52.0999 671.5 50.4999 671.3C48.8999 671.233 47.3332 671.067 45.7999 670.8C42.0999 670.1 38.4999 668.7 35.7999 666.2C33.6999 664.4 32.0999 662 31.0999 659.4C30.2999 657.2 30.0999 654.4 31.7999 652.7C32.7999 651.7 34.1999 651.4 35.4999 651.1C36.6999 650.833 37.8999 650.6 39.0999 650.4C40.6999 650.2 40.8999 648 39.4999 647.4L34.3999 645.3C32.9999 644.7 31.4999 644.1 30.5999 642.9C28.9999 641 29.0999 638.3 29.5999 635.9C30.1999 632.8 31.2999 629.7 31.9999 626.6C32.7999 623.5 33.1999 620.1 32.3999 617C41.7999 616.1 51.4999 616.5 60.6999 618.9C63.3999 619.6 66.1999 620.5 68.3999 622.3C71.5999 624.8 72.3999 628.6 71.9999 632.7C71.9999 633.5 72.9999 633.8 73.3999 633.1L76.5999 627.1C77.5999 625.3 79.7999 624.7 81.6999 625.5C84.3999 626.8 86.8999 628.9 88.9999 631.3C91.2999 633.9 92.4999 637.3 92.1999 640.8C91.7999 645.4 90.9999 650.1 89.7999 654.6C89.4999 655.8 90.8999 656.7 91.8999 656L91.9999 655.9C92.8999 655.3 93.9999 654.9 95.0999 655C97.8999 655.4 98.5999 658.3 98.7999 660.7C99.0999 664.3 98.4999 668.5 97.7999 672.2Z" fill="black"/>
<path opacity="0.2" d="M97.7999 672.2C96.7999 677.8 91.9999 684.7 86.8999 687.3C81.8999 689.8 76.0999 690.5 70.4999 690C64.6999 689.5 59.1999 687.9 53.7999 686.1C51.0999 685.2 48.0999 683.9 47.7999 680.6C47.5999 678.9 48.3999 677.2 49.6999 675.9C50.2332 675.367 50.7999 674.867 51.3999 674.4C52.6999 673.5 52.0999 671.5 50.4999 671.3C48.8999 671.233 47.3332 671.067 45.7999 670.8C42.0999 670.1 38.4999 668.7 35.7999 666.2C33.6999 664.4 32.0999 662 31.0999 659.4C30.2999 657.2 30.0999 654.4 31.7999 652.7C32.7999 651.7 34.1999 651.4 35.4999 651.1C36.6999 650.833 37.8999 650.6 39.0999 650.4C40.6999 650.2 40.8999 648 39.4999 647.4L34.3999 645.3C32.9999 644.7 31.4999 644.1 30.5999 642.9C28.9999 641 29.0999 638.3 29.5999 635.9C30.1999 632.8 31.2999 629.7 31.9999 626.6C32.7999 623.5 33.1999 620.1 32.3999 617C41.7999 616.1 51.4999 616.5 60.6999 618.9C63.3999 619.6 66.1999 620.5 68.3999 622.3C71.5999 624.8 72.3999 628.6 71.9999 632.7C71.9999 633.5 72.9999 633.8 73.3999 633.1L76.5999 627.1C77.5999 625.3 79.7999 624.7 81.6999 625.5C84.3999 626.8 86.8999 628.9 88.9999 631.3C91.2999 633.9 92.4999 637.3 92.1999 640.8C91.7999 645.4 90.9999 650.1 89.7999 654.6C89.4999 655.8 90.8999 656.7 91.8999 656L91.9999 655.9C92.8999 655.3 93.9999 654.9 95.0999 655C97.8999 655.4 98.5999 658.3 98.7999 660.7C99.0999 664.3 98.4999 668.5 97.7999 672.2Z" fill="white"/>
<path d="M82.8001 686.5C82.8001 686.3 80.8001 676.8 75.2001 664.4C75.2001 664.2 75.1001 664.033 74.9001 663.9C74.7668 663.5 74.6001 663.1 74.4001 662.7C76.0001 647.9 81.9001 637.5 81.9001 637.4C82.1001 637.1 82.0001 636.6 81.6001 636.4C81.3001 636.2 80.8001 636.3 80.6001 636.7C80.5001 636.8 75.1001 646.3 73.1001 660.1C66.7001 647.2 56.4001 632.1 40.6001 621.1C40.2001 620.8 39.7001 620.9 39.5001 621.3C39.2001 621.6 39.3001 622.1 39.7001 622.3C56.0001 633.7 66.4001 649.5 72.6001 662.6C59.9001 656.4 46.3001 658.9 45.7001 659C45.2001 659.1 45.0001 659.5 45.0001 659.9C45.1001 660.2 45.4001 660.4 45.7001 660.5C45.7668 660.5 45.8668 660.5 46.0001 660.5C46.1001 660.5 60.9001 657.8 73.7001 664.9C79.3001 677.2 81.2001 686.6 81.3001 686.8C81.3001 687.1 81.6001 687.3 81.9001 687.4C81.9668 687.4 82.0668 687.4 82.2001 687.4C82.6001 687.3 82.9001 686.9 82.8001 686.5Z" fill="#F0F0F0"/>
<path d="M932.8 686.6L898.5 687.6L864.2 686.6C862.7 709.8 867.2 733.4 873.5 745C874.6 747.5 876.8 749.9 880.3 751.9C890.4 757.7 906.8 757.7 916.8 751.9C920.3 749.8 922.6 747.4 923.6 744.8C929.8 733.2 934.3 709.7 932.8 686.6Z" fill="white"/>
<path d="M922.7 672.6C936.1 680.3 936.2 692.9 922.8 700.7C909.5 708.4 887.7 708.4 874.3 700.7C860.9 692.9 860.8 680.3 874.1 672.6C887.5 664.8 909.2 664.8 922.7 672.6Z" fill="#EBEBEB"/>
<path d="M917.4 675.7C927.8 681.7 927.9 691.5 917.5 697.6C907.1 703.7 890.1 703.7 879.6 697.6C869.1 691.5 869.1 681.7 879.5 675.7C889.9 669.6 906.9 669.6 917.4 675.7Z" fill="#E0E0E0"/>
<g opacity="0.1">
<path d="M917.4 675.7C927.8 681.7 927.9 691.5 917.5 697.6C907.1 703.7 890.1 703.7 879.6 697.6C869.1 691.5 869.1 681.7 879.5 675.7C889.9 669.6 906.9 669.6 917.4 675.7Z" fill="black"/>
</g>
<path d="M954.9 540.2C877.6 565.5 876.9 617.2 894.3 654.1C898.7 661.5 912 665.6 923.6 619.7L903.3 622.3L927 610.3L933.1 592L913.4 593.4L938.4 582.9C947.6 555 954.9 540.2 954.9 540.2Z" fill="#E40070"/>
<path opacity="0.2" d="M954.9 540.2C877.6 565.5 876.9 617.2 894.3 654.1C898.7 661.5 912 665.6 923.6 619.7L903.3 622.3L927 610.3L933.1 592L913.4 593.4L938.4 582.9C947.6 555 954.9 540.2 954.9 540.2Z" fill="black"/>
<path opacity="0.2" d="M954.9 540.2C877.6 565.5 876.9 617.2 894.3 654.1C898.7 661.5 912 665.6 923.6 619.7L903.3 622.3L927 610.3L933.1 592L913.4 593.4L938.4 582.9C947.6 555 954.9 540.2 954.9 540.2Z" fill="white"/>
<path d="M933 553.1C892.3 584.1 888.6 619.6 900.1 656.6C896 624 891.6 591 933 553.1Z" fill="white"/>
<path d="M823.9 592.7C900.2 603.5 909.4 651.5 899.3 688.8C896.4 696.4 884.7 702.4 866.3 661.6L885.7 660.7L861.6 653.4L852.8 637.3L871.5 635.4L846.4 629.8C833.1 605.3 823.9 592.7 823.9 592.7Z" fill="#E40070"/>
<path opacity="0.2" d="M823.9 592.7C900.2 603.5 909.4 651.5 899.3 688.8C896.4 696.4 884.7 702.4 866.3 661.6L885.7 660.7L861.6 653.4L852.8 637.3L871.5 635.4L846.4 629.8C833.1 605.3 823.9 592.7 823.9 592.7Z" fill="white"/>
<path opacity="0.1" d="M823.9 592.7C900.2 603.5 909.4 651.5 899.3 688.8C896.4 696.4 884.7 702.4 866.3 661.6L885.7 660.7L861.6 653.4L852.8 637.3L871.5 635.4L846.4 629.8C833.1 605.3 823.9 592.7 823.9 592.7Z" fill="black"/>
<path d="M846.4 601.2C889.6 623.2 898.9 655.6 894.3 692.1C892.7 661 891.3 629.6 846.4 601.2Z" fill="white"/>
<path d="M977.2 610.8C907.3 611.9 893.6 654.2 898.6 688.9C900.3 696.1 910.2 702.8 931.3 668.1L914 665.1L936.5 661.2L946.2 647.7L929.6 643.9L952.8 641.6C967.5 621 977.2 610.8 977.2 610.8Z" fill="#E40070"/>
<path d="M956 615.8C914.6 630.9 902.6 659.1 902.7 692.4C907.6 664.6 912.4 636.4 956 615.8Z" fill="white"/>
<path opacity="0.2" d="M977.2 610.8C907.3 611.9 893.6 654.2 898.6 688.9C900.3 696.1 910.2 702.8 931.3 668.1L914 665.1L936.5 661.2L946.2 647.7L929.6 643.9L952.8 641.6C967.5 621 977.2 610.8 977.2 610.8Z" fill="white"/>
<path d="M92.5999 572.9L91.8999 259.4C91.8999 250.5 98.0999 239.6 105.9 235.1L495.7 10.7C499.5 8.39999 503 8.19999 505.5 9.59999L490.9 1.09999V1.19999C488.3 -0.500006 484.7 -0.300006 480.7 1.99999L90.8999 226.4C83.1999 230.9 76.8999 241.8 76.8999 250.7L77.5999 564.2C77.5999 568.4 79.0999 571.4 81.3999 573C81.6666 573.133 81.9332 573.267 82.1999 573.4L96.5999 581.9C94.1999 580.4 92.5999 577.3 92.5999 572.9Z" fill="#522D7D"/>
<path opacity="0.4" d="M490.9 1.09999V1.19999C488.3 -0.500006 484.7 -0.300006 480.7 1.99999L90.9002 226.4C86.6002 228.9 82.8002 233.4 80.2002 238.4L95.2002 247C97.8002 242.1 101.6 237.6 105.9 235.1L495.7 10.7C499.5 8.39999 503 8.19999 505.5 9.59999L490.9 1.09999Z" fill="white"/>
<path opacity="0.3" d="M76.8999 250.7L77.5999 564.2C77.5999 568.4 79.0999 571.4 81.3999 573C81.6666 573.133 81.9332 573.267 82.1999 573.4L96.5999 581.9C94.1999 580.4 92.5999 577.3 92.5999 572.9L91.8999 259.4C91.8999 255.4 93.0999 251 95.1999 247L80.1999 238.4C78.0999 242.4 76.8999 246.7 76.8999 250.7Z" fill="white"/>
<path d="M91.8999 277.5L92.5999 572.9C92.5999 577.3 94.1999 580.4 96.5999 581.9C96.6666 581.9 96.7666 581.933 96.8999 582C96.8999 582 96.9332 582 96.9999 582C99.4999 583.4 102.9 583.1 106.7 580.9L496.5 356.5C504.2 352 510.5 341.2 510.4 332.3L509.8 36.4L91.8999 277.5Z" fill="#522D7D"/>
<path opacity="0.4" d="M91.8999 277.5L92.5999 572.9C92.5999 577.3 94.1999 580.4 96.5999 581.9C96.6666 581.9 96.7666 581.933 96.8999 582C96.8999 582 96.9332 582 96.9999 582C99.4999 583.4 102.9 583.1 106.7 580.9L496.5 356.5C504.2 352 510.5 341.2 510.4 332.3L509.8 36.4L91.8999 277.5Z" fill="black"/>
<path d="M509.7 18.7C509.7 14.3 508.2 11.2 505.7 9.7C505.7 9.7 505.667 9.7 505.6 9.7C505.6 9.7 505.567 9.66666 505.5 9.6C503 8.2 499.5 8.4 495.7 10.7L105.9 235.1C98.0999 239.6 91.8999 250.5 91.8999 259.4V277.5L509.8 36.4L509.7 18.7Z" fill="#522D7D"/>
<g opacity="0.5">
<path d="M110.5 247.8C112.6 246.6 114.3 247.6 114.3 250C114.3 252.4 112.6 255.4 110.5 256.6C108.4 257.8 106.7 256.9 106.6 254.4C106.6 252 108.3 249.1 110.5 247.8Z" fill="white"/>
<path d="M120.9 241.8C123 240.6 124.7 241.6 124.8 244C124.8 246.4 123.1 249.4 120.9 250.6C118.8 251.8 117.1 250.8 117.1 248.4C117.1 246 118.8 243 120.9 241.8Z" fill="white"/>
<path d="M131.4 235.8C133.5 234.5 135.2 235.5 135.2 237.9C135.2 240.4 133.5 243.3 131.4 244.6C129.3 245.8 127.6 244.8 127.6 242.4C127.5 239.9 129.3 237 131.4 235.8Z" fill="white"/>
</g>
<g opacity="0.4">
<path d="M110.5 247.8C112.6 246.6 114.3 247.6 114.3 250C114.3 252.4 112.6 255.4 110.5 256.6C108.4 257.8 106.7 256.9 106.6 254.4C106.6 252 108.3 249.1 110.5 247.8Z" fill="white"/>
<path d="M120.9 241.8C123 240.6 124.7 241.6 124.8 244C124.8 246.4 123.1 249.4 120.9 250.6C118.8 251.8 117.1 250.8 117.1 248.4C117.1 246 118.8 243 120.9 241.8Z" fill="white"/>
<path d="M131.4 235.8C133.5 234.5 135.2 235.5 135.2 237.9C135.2 240.4 133.5 243.3 131.4 244.6C129.3 245.8 127.6 244.8 127.6 242.4C127.5 239.9 129.3 237 131.4 235.8Z" fill="white"/>
</g>
<path d="M388.8 305L443.6 273.4V266.4L388.7 298.1L388.8 305Z" fill="white"/>
<path d="M466.7 253L451.2 262L451.3 268.9L466.8 260L466.7 253Z" fill="white"/>
<path d="M364 336.5L490.9 263.2V256.3L363.9 329.6L364 336.5Z" fill="white"/>
<path d="M352.3 343.3L352.2 336.3L336.7 345.3V352.2L352.3 343.3Z" fill="white"/>
<path d="M380.6 302.7L305.9 345.9V352.9L380.7 309.7L380.6 302.7Z" fill="white"/>
<path d="M313.5 307.1L298 316.1V323L313.5 314V307.1Z" fill="white"/>
<path d="M295.3 359V352L246.3 380.3V387.2L295.3 359Z" fill="white"/>
<path d="M223.7 427.8V434.7L270.9 407.4V400.5L223.7 427.8Z" fill="white"/>
<path d="M325.1 359V352L246.4 397.5V404.4L325.1 359Z" fill="white"/>
<path d="M406.2 277.7L421.7 268.8V261.8L406.2 270.8V277.7Z" fill="#522D7D"/>
<path d="M349.2 303.7V310.7L394.2 284.7V277.7L349.2 303.7Z" fill="#522D7D"/>
<path d="M283.3 348.7L334.5 319.1V312.2L283.3 341.7V348.7Z" fill="#522D7D"/>
<path d="M268.5 357.2V350.3L223.5 376.3V383.2L268.5 357.2Z" fill="#522D7D"/>
<path d="M204.1 377.2L286.7 329.5V322.6L204.1 370.3V377.2Z" fill="white"/>
<path d="M334.3 250.5V243.5L202.3 319.7L202.4 326.6L334.3 250.5Z" fill="white"/>
<path d="M249.1 282.5V275.5L202.3 302.5V309.5L249.1 282.5Z" fill="white"/>
<path d="M262.6 250.5L202.2 285.4L202.3 292.3L262.6 257.5V250.5Z" fill="white"/>
<path d="M265.1 273.2L392.1 199.9V193L265.1 266.3V273.2Z" fill="white"/>
<path d="M310.3 223L277.1 242.2V249.1L310.3 229.9V223Z" fill="white"/>
<path d="M233.5 215.8L154.8 261.2V268.1L233.5 222.7V215.8Z" fill="#522D7D"/>
<path d="M202.6 250.8L154.8 278.4V285.3L202.6 257.7V250.8Z" fill="#522D7D"/>
<path d="M223.4 245.7L372 159.9V153L223.4 238.8V245.7Z" fill="#522D7D"/>
<path d="M433.7 124.3V117.3L386.6 144.5V151.5L433.7 124.3Z" fill="#522D7D"/>
<path d="M471.7 102.4V95.4L448.1 109L448.2 115.9L471.7 102.4Z" fill="#522D7D"/>
<path d="M225.6 254.7L178.8 281.7V288.7L225.7 261.6L225.6 254.7Z" fill="white"/>
<path d="M425.1 173.9L404.2 186V192.9L425.1 180.8V173.9Z" fill="white"/>
<path d="M490.6 143.1V136.1L435.7 167.7L435.8 174.7L490.6 143.1Z" fill="white"/>
<path d="M375 261.4V254.4L247.2 328.2V335.1L375 261.4Z" fill="#522D7D"/>
<path d="M232.6 336.6L179 367.6V374.5L232.6 343.6V336.6Z" fill="#522D7D"/>
<path d="M205.7 335L179 350.4V357.4L205.7 341.9V335Z" fill="#522D7D"/>
<path d="M402.5 365.8L418.1 356.9L418 349.9L402.5 358.9V365.8Z" fill="#522D7D"/>
<path d="M392.1 371.9V364.9L342.4 393.6V400.6L392.1 371.9Z" fill="#522D7D"/>
<path d="M491.1 324.9L273 450.9V457.8L491.1 331.9V324.9Z" fill="#522D7D"/>
<path d="M332 399.6L272.9 433.7V440.7L332 406.6V399.6Z" fill="#522D7D"/>
<path d="M223.8 479.3V486.2L261.9 464.2V457.3L223.8 479.3Z" fill="#522D7D"/>
<path d="M261.9 440.1L202.8 474.2V481.2L261.9 447V440.1Z" fill="#522D7D"/>
<path d="M233.8 439.1L202.7 457L202.8 464L233.8 446.1V439.1Z" fill="#522D7D"/>
<g opacity="0.3">
<path d="M406.2 277.7L421.7 268.8V261.8L406.2 270.8V277.7Z" fill="white"/>
<path d="M349.2 303.7V310.7L394.2 284.7V277.7L349.2 303.7Z" fill="white"/>
<path d="M283.3 348.7L334.5 319.1V312.2L283.3 341.7V348.7Z" fill="white"/>
<path d="M268.5 357.2V350.3L223.5 376.3V383.2L268.5 357.2Z" fill="white"/>
</g>
<g opacity="0.3">
<path d="M233.5 215.8L154.8 261.2V268.1L233.5 222.7V215.8Z" fill="white"/>
<path d="M202.6 250.8L154.8 278.4V285.3L202.6 257.7V250.8Z" fill="white"/>
<path d="M223.4 245.7L372 159.9V153L223.4 238.8V245.7Z" fill="white"/>
<path d="M433.7 124.3V117.3L386.6 144.5V151.5L433.7 124.3Z" fill="white"/>
<path d="M471.7 102.4V95.4L448.1 109L448.2 115.9L471.7 102.4Z" fill="white"/>
</g>
<g opacity="0.3">
<path d="M375 261.4V254.4L247.2 328.2V335.1L375 261.4Z" fill="white"/>
<path d="M232.6 336.6L179 367.6V374.5L232.6 343.6V336.6Z" fill="white"/>
<path d="M205.7 335L179 350.4V357.4L205.7 341.9V335Z" fill="white"/>
</g>
<g opacity="0.3">
<path d="M402.5 365.8L418.1 356.9L418 349.9L402.5 358.9V365.8Z" fill="white"/>
<path d="M392.1 371.9V364.9L342.4 393.6V400.6L392.1 371.9Z" fill="white"/>
<path d="M491.1 324.9L273 450.9V457.8L491.1 331.9V324.9Z" fill="white"/>
<path d="M332 399.6L272.9 433.7V440.7L332 406.6V399.6Z" fill="white"/>
<path d="M223.8 479.3V486.2L261.9 464.2V457.3L223.8 479.3Z" fill="white"/>
<path d="M261.9 440.1L202.8 474.2V481.2L261.9 447V440.1Z" fill="white"/>
<path d="M233.8 439.1L202.7 457L202.8 464L233.8 446.1V439.1Z" fill="white"/>
</g>
<path d="M134.8 335L119.9 343.6V360.8L134.9 352.2L134.8 335Z" fill="white"/>
<path d="M120 384.6L135 376L134.9 358.8L119.9 367.4L120 384.6Z" fill="white"/>
<path d="M135.2 445.3L120.2 453.9V471.1L135.2 462.5V445.3Z" fill="white"/>
<path d="M120.3 494.9L135.3 486.3L135.2 469.1L120.3 477.7V494.9Z" fill="white"/>
<path d="M135.1 421.5L120.1 430.1L120.2 447.3L135.1 438.7V421.5Z" fill="white"/>
<path fill-rule="evenodd" clip-rule="evenodd" d="M140.2 536.6L115.6 550.8L115.3 427.4L139.9 413.2L140.2 536.6ZM135.2 469L120.2 477.7L120.3 494.9L135.2 486.2V469ZM120.1 447.3L135.1 438.6L135 421.5L120.1 430.1V447.3ZM120.1 471.1L135.1 462.5V445.3L120.1 453.9V471.1ZM120.2 518.7L135.2 510L135.1 492.9L128.8 496.5L120.2 501.5V518.7ZM135.3 533.8L135.2 516.6L120.2 525.3L120.3 542.5L135.3 533.8Z" fill="#522D7D"/>
<path fill-rule="evenodd" clip-rule="evenodd" d="M139.9 402.5L115.3 416.7L114.9 293.3L139.5 279.1L139.9 402.5ZM119.8 313.2L134.8 304.5V287.4L119.8 296V313.2ZM119.9 337L134.8 328.3V311.1L128.5 314.8L119.8 319.8L119.9 337ZM120 360.8L134.9 352.1V335L119.9 343.6L120 360.8ZM120.1 384.6L135.1 375.9L135 358.8L120.1 367.4V384.6ZM120.1 408.4L135.1 399.7L135 382.6L120.1 391.2V408.4Z" fill="#522D7D"/>
<path opacity="0.3" fill-rule="evenodd" clip-rule="evenodd" d="M140.2 536.6L115.6 550.8L115.3 427.4L139.9 413.2L140.2 536.6ZM135.2 469L120.2 477.7L120.3 494.9L135.2 486.2V469ZM120.1 447.3L135.1 438.6L135 421.5L120.1 430.1V447.3ZM120.1 471.1L135.1 462.5V445.3L120.1 453.9V471.1ZM120.2 518.7L135.2 510L135.1 492.9L128.8 496.5L120.2 501.5V518.7ZM135.3 533.8L135.2 516.6L120.2 525.3L120.3 542.5L135.3 533.8Z" fill="white"/>
<path opacity="0.3" fill-rule="evenodd" clip-rule="evenodd" d="M139.9 402.5L115.3 416.7L114.9 293.3L139.5 279.1L139.9 402.5ZM119.8 313.2L134.8 304.5V287.4L119.8 296V313.2ZM119.9 337L134.8 328.3V311.1L128.5 314.8L119.8 319.8L119.9 337ZM120 360.8L134.9 352.1V335L119.9 343.6L120 360.8ZM120.1 384.6L135.1 375.9L135 358.8L120.1 367.4V384.6ZM120.1 408.4L135.1 399.7L135 382.6L120.1 391.2V408.4Z" fill="white"/>
<path d="M134.8 328.4V311.2L128.4 314.8L119.8 319.8L119.9 337L134.8 328.4Z" fill="white"/>
<path d="M139.5 279.1V269.5L114.9 283.7V293.3L139.5 279.1Z" fill="white"/>
<path d="M134.8 304.6L134.7 287.4L119.7 296L119.8 313.2L134.8 304.6Z" fill="white"/>
<path d="M135 382.5L120 391.2L120.1 408.4L135 399.7V382.5Z" fill="white"/>
<path d="M135.3 510V492.9L129 496.5L120.3 501.5L120.4 518.7L135.3 510Z" fill="white"/>
<path d="M120.4 525.3V542.5L135.4 533.8V516.6L120.4 525.3Z" fill="white"/>
<path d="M431.7 168.2V167.7V161.5C431.7 158.9 433.6 155.7 435.8 154.4L555.3 85.4C556.5 84.7 557.6 84.7 558.3 85.2V85.1L562.4 88.1C562.4 88.1 559.7 89.7 559.7 89.8C559.7 89.8 559.6 89.8 559.5 89.7V94V99.1L435.7 170.6L431.7 168.2Z" fill="#522D7D"/>
<path opacity="0.7" d="M431.7 168.2V167.7V161.5C431.7 158.9 433.6 155.7 435.8 154.4L555.3 85.4C556.5 84.7 557.6 84.7 558.3 85.2V85.1L562.4 88.1C562.4 88.1 559.7 89.7 559.7 89.8C559.7 89.8 559.6 89.8 559.5 89.7V94V99.1L435.7 170.6L431.7 168.2Z" fill="white"/>
<path d="M435.7 170.6L559.5 99.1L559.7 184C559.8 186.7 557.9 189.9 555.6 191.2L438 259.1L439 260.4L437.1 263.3L433.1 260.4C432.4 259.9 432 259 432 257.8L431.7 168.2L435.7 170.6Z" fill="#37474F"/>
<path d="M439.8 157.2C437.5 158.5 435.6 161.7 435.7 164.4V170.6L563.4 96.8V90.6C563.4 88 561.6 86.9 559.3 88.2L439.8 157.2Z" fill="#522D7D"/>
<g opacity="0.5">
<path d="M439.8 157.2C437.5 158.5 435.6 161.7 435.7 164.4V170.6L563.4 96.8V90.6C563.4 88 561.6 86.9 559.3 88.2L439.8 157.2Z" fill="white"/>
</g>
<path d="M435.7 170.6L435.9 260.7C435.9 263.3 437.8 264.3 440.1 263L559.6 194C561.9 192.7 563.7 189.5 563.7 186.9L563.4 96.8L435.7 170.6Z" fill="#455A64"/>
<path d="M521.5 195.6V199.3L557 178.8V175.1L521.5 195.6Z" fill="#522D7D"/>
<path d="M521.4 172.3V176L556.9 155.6V151.8L521.4 172.3Z" fill="#522D7D"/>
<path d="M532.1 149.9V153.7L556.9 139.3L556.8 135.6L532.1 149.9Z" fill="#522D7D"/>
<path d="M487.9 223.1L488 226.8L533.6 200.5V196.7L487.9 223.1Z" fill="#522D7D"/>
<path d="M476.5 213.4V217.1L533.5 184.2V180.5L476.5 213.4Z" fill="#522D7D"/>
<path d="M505.2 156.1V159.9L533.4 143.6V139.8L505.2 156.1Z" fill="#522D7D"/>
<path d="M463.9 197.4V201.1L533.5 161V157.2L463.9 197.4Z" fill="#522D7D"/>
<path d="M442.2 226.1L442.3 229.9L533.5 177.2V173.4L442.2 226.1Z" fill="#522D7D"/>
<path d="M442.1 185.5V189.3L533.4 136.6V132.8L442.1 185.5Z" fill="#522D7D"/>
<path d="M521.3 131.7V135.4L556.8 114.9V111.2L521.3 131.7Z" fill="#522D7D"/>
<g opacity="0.5">
<path d="M521.5 195.6V199.3L557 178.8V175.1L521.5 195.6Z" fill="white"/>
<path d="M521.4 172.3V176L556.9 155.6V151.8L521.4 172.3Z" fill="white"/>
<path d="M532.1 149.9V153.7L556.9 139.3L556.8 135.6L532.1 149.9Z" fill="white"/>
<path d="M487.9 223.1L488 226.8L533.6 200.5V196.7L487.9 223.1Z" fill="white"/>
<path d="M476.5 213.4V217.1L533.5 184.2V180.5L476.5 213.4Z" fill="white"/>
<path d="M505.2 156.1V159.9L533.4 143.6V139.8L505.2 156.1Z" fill="white"/>
<path d="M463.9 197.4V201.1L533.5 161V157.2L463.9 197.4Z" fill="white"/>
<path d="M442.2 226.1L442.3 229.9L533.5 177.2V173.4L442.2 226.1Z" fill="white"/>
<path d="M442.1 185.5V189.3L533.4 136.6V132.8L442.1 185.5Z" fill="white"/>
<path d="M521.3 131.7V135.4L556.8 114.9V111.2L521.3 131.7Z" fill="white"/>
</g>
<path d="M125.7 541.3V540.8V533.7C125.7 530.6 127.8 527 130.4 525.5L267.6 446.3C268.9 445.5 270.2 445.5 271 446L275.7 449.3C275.7 449.3 272.7 451.2 272.7 451.3C272.7 451.3 272.5 451.3 272.3 451.3L272.4 456.1V462L130.2 544.1L125.7 541.3Z" fill="#E40070"/>
<path opacity="0.3" d="M125.7 541.3V540.8V533.7C125.7 530.6 127.8 527 130.4 525.5L267.6 446.3C268.9 445.5 270.2 445.5 271 446L275.7 449.3C275.7 449.3 272.7 451.2 272.7 451.3C272.7 451.3 272.5 451.3 272.3 451.3L272.4 456.1V462L130.2 544.1L125.7 541.3Z" fill="white"/>
<path d="M130.2 544.1L272.4 462L272.7 559.5C272.7 562.5 270.5 566.2 267.9 567.7L132.9 645.7L134.1 647.2L131.8 650.5L127.2 647.1C126.5 646.6 126 645.6 126 644.2L125.7 541.3L130.2 544.1Z" fill="#37474F"/>
<path d="M134.9 528.7C132.3 530.3 130.2 533.9 130.2 536.9V544.1L276.9 459.4V452.3C276.9 449.2 274.7 448 272.1 449.5L134.9 528.7Z" fill="#E40070"/>
<g opacity="0.1">
<path d="M134.9 528.7C132.3 530.3 130.2 533.9 130.2 536.9V544.1L276.9 459.4V452.3C276.9 449.2 274.7 448 272.1 449.5L134.9 528.7Z" fill="white"/>
</g>
<path d="M130.2 544.1L130.5 647.5C130.5 650.5 132.7 651.7 135.3 650.2L272.5 571C275.1 569.5 277.2 565.8 277.2 562.8L276.9 459.4L130.2 544.1Z" fill="#455A64"/>
<path d="M137.8 626L137.9 630.3L178.6 606.8V602.5L137.8 626Z" fill="#E40070"/>
<path d="M137.8 599.3V603.6L178.5 580.1V575.8L137.8 599.3Z" fill="#E40070"/>
<path d="M137.8 580.9V585.2L166.2 568.8V564.5L137.8 580.9Z" fill="#E40070"/>
<path d="M166.3 618.1V622.4L218.7 592.1V587.8L166.3 618.1Z" fill="#E40070"/>
<path d="M166.5 599.6V603.9L231.9 566.1V561.8L166.5 599.6Z" fill="#E40070"/>
<path d="M164.1 554.3V558.6L196.5 539.9V535.5L164.1 554.3Z" fill="#E40070"/>
<path d="M166.5 571.7V576.1L246.4 530V525.6L166.5 571.7Z" fill="#E40070"/>
<path d="M166.5 591.8V596.1L271.2 535.6V531.3L166.5 591.8Z" fill="#E40070"/>
<path d="M163.9 546.5V550.9L268.7 490.4V486L163.9 546.5Z" fill="#E40070"/>
<path d="M137.6 552.6V557L178.4 533.5L178.3 529.1L137.6 552.6Z" fill="#E40070"/>
<g opacity="0.5">
<path d="M137.8 626L137.9 630.3L178.6 606.8V602.5L137.8 626Z" fill="white"/>
<path d="M137.8 599.3V603.6L178.5 580.1V575.8L137.8 599.3Z" fill="white"/>
<path d="M137.8 580.9V585.2L166.2 568.8V564.5L137.8 580.9Z" fill="white"/>
<path d="M166.3 618.1V622.4L218.7 592.1V587.8L166.3 618.1Z" fill="white"/>
<path d="M166.5 599.6V603.9L231.9 566.1V561.8L166.5 599.6Z" fill="white"/>
<path d="M164.1 554.3V558.6L196.5 539.9V535.5L164.1 554.3Z" fill="white"/>
<path d="M166.5 571.7V576.1L246.4 530V525.6L166.5 571.7Z" fill="white"/>
<path d="M166.5 591.8V596.1L271.2 535.6V531.3L166.5 591.8Z" fill="white"/>
<path d="M163.9 546.5V550.9L268.7 490.4V486L163.9 546.5Z" fill="white"/>
<path d="M137.6 552.6V557L178.4 533.5L178.3 529.1L137.6 552.6Z" fill="white"/>
</g>
<path d="M793 474.3V449.3L681.5 409.9L570 449.3V474.7L682.2 539.5L793.8 474.7L793 474.3Z" fill="#E0E0E0"/>
<path opacity="0.4" d="M793 474.3V449.3L681.5 409.9L570 449.3V474.7L682.2 539.5L793.8 474.7L793 474.3Z" fill="black"/>
<path d="M806.9 415.4L681.5 343L556.8 415.4L682.3 487.8L806.9 415.4Z" fill="#E0E0E0"/>
<path opacity="0.1" d="M806.9 415.4L681.5 343L556.8 415.4L682.3 487.8L806.9 415.4Z" fill="black"/>
<path d="M682.3 487.8L682.1 531.5L806.7 459.1L806.9 415.4L682.3 487.8Z" fill="#E0E0E0"/>
<path opacity="0.2" d="M682.3 487.8L682.1 531.5L806.7 459.1L806.9 415.4L682.3 487.8Z" fill="black"/>
<path d="M556.8 415.4L556.7 459.1L682.1 531.5L682.3 487.8L556.8 415.4Z" fill="#E0E0E0"/>
<path d="M565.4 432.2L565.3 452.6L624 486.5L624.1 466.1L565.4 432.2Z" fill="#F0F0F0"/>
<path d="M571.6 442.8L569.9 441.8C569.1 441.3 568.4 441.7 568.4 442.7V447.2C568.4 448.1 569.1 449.3 569.9 449.8L571.6 450.8C572.5 451.3 573.1 450.9 573.1 449.9L573.2 445.4C573.2 444.5 572.5 443.3 571.6 442.8Z" fill="#E0E0E0"/>
<path d="M578.5 446.8L576.8 445.8C575.9 445.3 575.2 445.7 575.2 446.6V451.1C575.2 452.1 575.9 453.3 576.7 453.8L578.5 454.7C579.3 455.2 580 454.8 580 453.9V449.4C580 448.4 579.3 447.2 578.5 446.8Z" fill="#E0E0E0"/>
<path d="M585.3 450.7L583.6 449.7C582.8 449.2 582.1 449.6 582.1 450.6V455.1C582.1 456 582.7 457.2 583.6 457.7L585.3 458.7C586.1 459.2 586.8 458.8 586.8 457.8V453.3C586.8 452.4 586.2 451.2 585.3 450.7Z" fill="#E0E0E0"/>
<path d="M592.2 454.7L590.5 453.7C589.6 453.2 588.9 453.6 588.9 454.5V459C588.9 460 589.6 461.2 590.4 461.7L592.1 462.6C593 463.1 593.7 462.7 593.7 461.8V457.3C593.7 456.3 593 455.1 592.2 454.7Z" fill="#E0E0E0"/>
<path d="M599 458.6L597.3 457.6C596.4 457.1 595.8 457.5 595.8 458.5V463C595.8 463.9 596.4 465.1 597.3 465.6L599 466.6C599.8 467.1 600.5 466.7 600.5 465.7V461.2C600.5 460.3 599.8 459.1 599 458.6Z" fill="#E0E0E0"/>
<path d="M605.8 462.6L604.1 461.6C603.3 461.1 602.6 461.5 602.6 462.4V466.9C602.6 467.9 603.3 469.1 604.1 469.6L605.8 470.5C606.7 471 607.3 470.6 607.3 469.7L607.4 465.2C607.4 464.2 606.7 463 605.8 462.6Z" fill="#E0E0E0"/>
<path d="M612.7 466.5L611 465.5C610.1 465 609.5 465.4 609.5 466.4L609.4 470.9C609.4 471.8 610.1 473 611 473.5L612.7 474.5C613.5 475 614.2 474.6 614.2 473.6V469.1C614.2 468.2 613.5 467 612.7 466.5Z" fill="#E0E0E0"/>
<path opacity="0.3" d="M578.5 446.8L576.8 445.8C575.9 445.3 575.2 445.7 575.2 446.6V451.1C575.2 452.1 575.9 453.3 576.7 453.8L578.5 454.7C579.3 455.2 580 454.8 580 453.9V449.4C580 448.4 579.3 447.2 578.5 446.8Z" fill="black"/>
<path opacity="0.3" d="M592.2 454.7L590.5 453.7C589.6 453.2 588.9 453.6 588.9 454.5V459C588.9 460 589.6 461.2 590.4 461.7L592.1 462.6C593 463.1 593.7 462.7 593.7 461.8V457.3C593.7 456.3 593 455.1 592.2 454.7Z" fill="black"/>
<path opacity="0.3" d="M599 458.6L597.3 457.6C596.4 457.1 595.8 457.5 595.8 458.5V463C595.8 463.9 596.4 465.1 597.3 465.6L599 466.6C599.8 467.1 600.5 466.7 600.5 465.7V461.2C600.5 460.3 599.8 459.1 599 458.6Z" fill="black"/>
<path opacity="0.3" d="M612.7 466.5L611 465.5C610.1 465 609.5 465.4 609.5 466.4L609.4 470.9C609.4 471.8 610.1 473 611 473.5L612.7 474.5C613.5 475 614.2 474.6 614.2 473.6V469.1C614.2 468.2 613.5 467 612.7 466.5Z" fill="black"/>
<path d="M619.5 470.5L617.8 469.5C617 469 616.3 469.4 616.3 470.3V474.8C616.3 475.8 616.9 477 617.8 477.5L619.5 478.4C620.3 478.9 621 478.5 621 477.6V473.1C621 472.1 620.4 470.9 619.5 470.5Z" fill="#E0E0E0"/>
<path d="M669.2 503C669.2 499.9 667 496.1 664.4 494.6C663 493.8 661.9 493.8 661 494.2H660.9C660.9 494.2 660.9 494.233 660.9 494.3L657 496.5C657.9 496 659.1 496.1 660.4 496.8C663.1 498.4 665.2 502.1 665.2 505.2C665.2 506.7 664.7 507.8 663.8 508.3L667.6 506.2C667.733 506.133 667.833 506.067 667.9 506C668.7 505.4 669.2 504.4 669.2 503Z" fill="#E0E0E0"/>
<path opacity="0.2" d="M669.2 503C669.2 499.9 667 496.1 664.4 494.6C663 493.8 661.9 493.8 661 494.2H660.9C660.9 494.2 660.9 494.233 660.9 494.3L657 496.5C657.9 496 659.1 496.1 660.4 496.8C663.1 498.4 665.2 502.1 665.2 505.2C665.2 506.7 664.7 507.8 663.8 508.3L667.6 506.2C667.733 506.133 667.833 506.067 667.9 506C668.7 505.4 669.2 504.4 669.2 503Z" fill="black"/>
<path d="M665.2 505.2C665.2 502.1 663.1 498.4 660.4 496.8C659.1 496.1 657.9 496 657 496.5C656.1 497 655.5 498 655.5 499.6C655.5 502.7 657.7 506.5 660.4 508C661.7 508.8 662.8 508.8 663.7 508.4C663.767 508.333 663.8 508.3 663.8 508.3C664.7 507.8 665.2 506.7 665.2 505.2Z" fill="#E0E0E0"/>
<path opacity="0.1" d="M665.2 505.2C665.2 502.1 663.1 498.4 660.4 496.8C659.1 496.1 657.9 496 657 496.5C656.1 497 655.5 498 655.5 499.6C655.5 502.7 657.7 506.5 660.4 508C661.7 508.8 662.8 508.8 663.7 508.4C663.767 508.333 663.8 508.3 663.8 508.3C664.7 507.8 665.2 506.7 665.2 505.2Z" fill="black"/>
<path d="M650.1 491.5C650.1 488.4 647.9 484.6 645.3 483.1C643.9 482.3 642.8 482.3 641.9 482.7H641.8C641.8 482.767 641.8 482.8 641.8 482.8L637.9 485C638.8 484.5 640 484.6 641.3 485.3C644 486.9 646.1 490.6 646.1 493.7C646.1 495.2 645.6 496.3 644.7 496.8L648.5 494.7C648.633 494.633 648.733 494.567 648.8 494.5C649.6 494 650.1 492.9 650.1 491.5Z" fill="#E0E0E0"/>
<path opacity="0.2" d="M650.1 491.5C650.1 488.4 647.9 484.6 645.3 483.1C643.9 482.3 642.8 482.3 641.9 482.7H641.8C641.8 482.767 641.8 482.8 641.8 482.8L637.9 485C638.8 484.5 640 484.6 641.3 485.3C644 486.9 646.1 490.6 646.1 493.7C646.1 495.2 645.6 496.3 644.7 496.8L648.5 494.7C648.633 494.633 648.733 494.567 648.8 494.5C649.6 494 650.1 492.9 650.1 491.5Z" fill="black"/>
<path d="M646.1 493.7C646.1 490.6 644 486.9 641.3 485.3C640 484.6 638.8 484.5 637.9 485C637 485.5 636.4 486.6 636.4 488.1C636.4 491.2 638.6 495 641.3 496.5C642.5 497.3 643.7 497.3 644.6 496.9C644.667 496.9 644.7 496.867 644.7 496.8C645.6 496.3 646.1 495.2 646.1 493.7Z" fill="#E0E0E0"/>
<path opacity="0.1" d="M646.1 493.7C646.1 490.6 644 486.9 641.3 485.3C640 484.6 638.8 484.5 637.9 485C637 485.5 636.4 486.6 636.4 488.1C636.4 491.2 638.6 495 641.3 496.5C642.5 497.3 643.7 497.3 644.6 496.9C644.667 496.9 644.7 496.867 644.7 496.8C645.6 496.3 646.1 495.2 646.1 493.7Z" fill="black"/>
<path d="M793 413.3V388.3L681.5 348.9L570 388.3V413.7L682.2 478.6L793.8 413.7L793 413.3Z" fill="#E0E0E0"/>
<path opacity="0.4" d="M793 413.3V388.3L681.5 348.9L570 388.3V413.7L682.2 478.6L793.8 413.7L793 413.3Z" fill="black"/>
<path d="M806.9 354.4L681.5 282L556.8 354.4L682.3 426.8L806.9 354.4Z" fill="#E0E0E0"/>
<path opacity="0.1" d="M806.9 354.4L681.5 282L556.8 354.4L682.3 426.8L806.9 354.4Z" fill="black"/>
<path d="M682.3 426.8L682.1 470.5L806.7 398.1L806.9 354.4L682.3 426.8Z" fill="#E0E0E0"/>
<path opacity="0.2" d="M682.3 426.8L682.1 470.5L806.7 398.1L806.9 354.4L682.3 426.8Z" fill="black"/>
<path d="M556.8 354.4L556.7 398.1L682.1 470.5L682.3 426.8L556.8 354.4Z" fill="#E0E0E0"/>
<path d="M565.4 371.2L565.3 391.7L624 425.6L624.1 405.1L565.4 371.2Z" fill="#F0F0F0"/>
<path d="M571.6 381.9L569.9 380.9C569.1 380.4 568.4 380.8 568.4 381.7V386.2C568.4 387.2 569.1 388.4 569.9 388.9L571.6 389.8C572.5 390.3 573.1 389.9 573.1 389L573.2 384.5C573.2 383.5 572.5 382.3 571.6 381.9Z" fill="#E0E0E0"/>
<path d="M578.5 385.8L576.8 384.8C575.9 384.3 575.2 384.7 575.2 385.7V390.2C575.2 391.1 575.9 392.3 576.7 392.8L578.5 393.8C579.3 394.3 580 393.9 580 392.9V388.4C580 387.5 579.3 386.3 578.5 385.8Z" fill="#E0E0E0"/>
<path d="M585.3 389.8L583.6 388.8C582.8 388.3 582.1 388.7 582.1 389.6V394.1C582.1 395.1 582.7 396.3 583.6 396.8L585.3 397.7C586.1 398.2 586.8 397.8 586.8 396.9V392.4C586.8 391.4 586.2 390.2 585.3 389.8Z" fill="#E0E0E0"/>
<path d="M592.2 393.7L590.5 392.7C589.6 392.2 588.9 392.6 588.9 393.6V398.1C588.9 399 589.6 400.2 590.4 400.7L592.1 401.7C593 402.2 593.7 401.8 593.7 400.8V396.3C593.7 395.4 593 394.2 592.2 393.7Z" fill="#E0E0E0"/>
<path d="M599 397.7L597.3 396.7C596.4 396.2 595.8 396.6 595.8 397.5V402C595.8 403 596.4 404.2 597.3 404.7L599 405.6C599.8 406.1 600.5 405.7 600.5 404.8V400.3C600.5 399.3 599.8 398.1 599 397.7Z" fill="#E0E0E0"/>
<path d="M605.8 401.6L604.1 400.6C603.3 400.1 602.6 400.5 602.6 401.5V406C602.6 406.9 603.3 408.1 604.1 408.6L605.8 409.6C606.7 410.1 607.3 409.7 607.3 408.7L607.4 404.2C607.4 403.3 606.7 402.1 605.8 401.6Z" fill="#E0E0E0"/>
<path d="M612.7 405.6L611 404.6C610.1 404.1 609.5 404.5 609.5 405.4L609.4 409.9C609.4 410.9 610.1 412.1 611 412.6L612.7 413.5C613.5 414 614.2 413.6 614.2 412.7V408.2C614.2 407.2 613.5 406 612.7 405.6Z" fill="#E0E0E0"/>
<path opacity="0.3" d="M578.5 385.8L576.8 384.8C575.9 384.3 575.2 384.7 575.2 385.7V390.2C575.2 391.1 575.9 392.3 576.7 392.8L578.5 393.8C579.3 394.3 580 393.9 580 392.9V388.4C580 387.5 579.3 386.3 578.5 385.8Z" fill="black"/>
<path opacity="0.3" d="M592.2 393.7L590.5 392.7C589.6 392.2 588.9 392.6 588.9 393.6V398.1C588.9 399 589.6 400.2 590.4 400.7L592.1 401.7C593 402.2 593.7 401.8 593.7 400.8V396.3C593.7 395.4 593 394.2 592.2 393.7Z" fill="black"/>
<path opacity="0.3" d="M599 397.7L597.3 396.7C596.4 396.2 595.8 396.6 595.8 397.5V402C595.8 403 596.4 404.2 597.3 404.7L599 405.6C599.8 406.1 600.5 405.7 600.5 404.8V400.3C600.5 399.3 599.8 398.1 599 397.7Z" fill="black"/>
<path opacity="0.3" d="M612.7 405.6L611 404.6C610.1 404.1 609.5 404.5 609.5 405.4L609.4 409.9C609.4 410.9 610.1 412.1 611 412.6L612.7 413.5C613.5 414 614.2 413.6 614.2 412.7V408.2C614.2 407.2 613.5 406 612.7 405.6Z" fill="black"/>
<path d="M619.5 409.5L617.8 408.5C617 408 616.3 408.4 616.3 409.4V413.9C616.3 414.8 616.9 416 617.8 416.5L619.5 417.5C620.3 418 621 417.6 621 416.6V412.1C621 411.2 620.4 410 619.5 409.5Z" fill="#E0E0E0"/>
<path d="M669.2 442C669.2 438.9 667 435.2 664.4 433.6C663 432.9 661.9 432.8 661 433.3H660.9L657 435.5C657.9 435 659.1 435.1 660.4 435.9C663.1 437.4 665.2 441.2 665.2 444.3C665.2 445.8 664.7 446.8 663.8 447.4L667.6 445.2C667.733 445.2 667.833 445.167 667.9 445.1V445C668.7 444.5 669.2 443.5 669.2 442Z" fill="#E0E0E0"/>
<path opacity="0.2" d="M669.2 442C669.2 438.9 667 435.2 664.4 433.6C663 432.9 661.9 432.8 661 433.3H660.9L657 435.5C657.9 435 659.1 435.1 660.4 435.9C663.1 437.4 665.2 441.2 665.2 444.3C665.2 445.8 664.7 446.8 663.8 447.4L667.6 445.2C667.733 445.2 667.833 445.167 667.9 445.1V445C668.7 444.5 669.2 443.5 669.2 442Z" fill="black"/>
<path d="M665.2 444.3C665.2 441.2 663.1 437.4 660.4 435.9C659.1 435.1 657.9 435 657 435.5C656.1 436 655.5 437.1 655.5 438.7C655.5 441.7 657.7 445.5 660.4 447C661.7 447.8 662.8 447.9 663.7 447.4C663.767 447.4 663.8 447.4 663.8 447.4C664.7 446.8 665.2 445.8 665.2 444.3Z" fill="#E0E0E0"/>
<path opacity="0.1" d="M665.2 444.3C665.2 441.2 663.1 437.4 660.4 435.9C659.1 435.1 657.9 435 657 435.5C656.1 436 655.5 437.1 655.5 438.7C655.5 441.7 657.7 445.5 660.4 447C661.7 447.8 662.8 447.9 663.7 447.4C663.767 447.4 663.8 447.4 663.8 447.4C664.7 446.8 665.2 445.8 665.2 444.3Z" fill="black"/>
<path d="M650.1 430.5C650.1 427.4 647.9 423.7 645.3 422.1C643.9 421.4 642.8 421.3 641.9 421.8H641.8L637.9 424C638.8 423.5 640 423.6 641.3 424.4C644 425.9 646.1 429.7 646.1 432.8C646.1 434.3 645.6 435.3 644.7 435.9L648.5 433.7C648.633 433.7 648.733 433.667 648.8 433.6V433.5C649.6 433 650.1 432 650.1 430.5Z" fill="#E0E0E0"/>
<path opacity="0.2" d="M650.1 430.5C650.1 427.4 647.9 423.7 645.3 422.1C643.9 421.4 642.8 421.3 641.9 421.8H641.8L637.9 424C638.8 423.5 640 423.6 641.3 424.4C644 425.9 646.1 429.7 646.1 432.8C646.1 434.3 645.6 435.3 644.7 435.9L648.5 433.7C648.633 433.7 648.733 433.667 648.8 433.6V433.5C649.6 433 650.1 432 650.1 430.5Z" fill="black"/>
<path d="M646.1 432.8C646.1 429.7 644 425.9 641.3 424.4C640 423.6 638.8 423.5 637.9 424C637 424.5 636.4 425.6 636.4 427.2C636.4 430.2 638.6 434 641.3 435.5C642.5 436.3 643.7 436.4 644.6 435.9C644.667 435.9 644.7 435.9 644.7 435.9C645.6 435.3 646.1 434.3 646.1 432.8Z" fill="#E0E0E0"/>
<path opacity="0.1" d="M646.1 432.8C646.1 429.7 644 425.9 641.3 424.4C640 423.6 638.8 423.5 637.9 424C637 424.5 636.4 425.6 636.4 427.2C636.4 430.2 638.6 434 641.3 435.5C642.5 436.3 643.7 436.4 644.6 435.9C644.667 435.9 644.7 435.9 644.7 435.9C645.6 435.3 646.1 434.3 646.1 432.8Z" fill="black"/>
<path d="M793 352.4V327.4L681.5 288L570 327.4V352.8L682.2 417.6L793.8 352.8L793 352.4Z" fill="#E0E0E0"/>
<path opacity="0.4" d="M793 352.4V327.4L681.5 288L570 327.4V352.8L682.2 417.6L793.8 352.8L793 352.4Z" fill="black"/>
<path d="M806.9 293.5L681.5 221.1L556.8 293.5L682.3 365.9L806.9 293.5Z" fill="#E0E0E0"/>
<path opacity="0.1" d="M806.9 293.5L681.5 221.1L556.8 293.5L682.3 365.9L806.9 293.5Z" fill="black"/>
<path d="M682.3 365.9L682.1 409.5L806.7 337.1L806.9 293.5L682.3 365.9Z" fill="#E0E0E0"/>
<path opacity="0.2" d="M682.3 365.9L682.1 409.5L806.7 337.1L806.9 293.5L682.3 365.9Z" fill="black"/>
<path d="M556.8 293.5L556.7 337.1L682.1 409.5L682.3 365.9L556.8 293.5Z" fill="#E0E0E0"/>
<path d="M565.4 310.3L565.3 330.7L624 364.6L624.1 344.2L565.4 310.3Z" fill="#F0F0F0"/>
<path d="M571.6 320.9L569.9 319.9C569.1 319.4 568.4 319.8 568.4 320.8V325.3C568.4 326.2 569.1 327.4 569.9 327.9L571.6 328.9C572.5 329.4 573.1 329 573.1 328L573.2 323.5C573.2 322.6 572.5 321.4 571.6 320.9Z" fill="#E0E0E0"/>
<path d="M578.5 324.8L576.8 323.9C575.9 323.4 575.2 323.8 575.2 324.7V329.2C575.2 330.2 575.9 331.4 576.7 331.8L578.5 332.8C579.3 333.3 580 332.9 580 332V327.5C580 326.5 579.3 325.3 578.5 324.8Z" fill="#E0E0E0"/>
<path d="M585.3 328.8L583.6 327.8C582.8 327.3 582.1 327.7 582.1 328.7V333.2C582.1 334.1 582.7 335.3 583.6 335.8L585.3 336.8C586.1 337.3 586.8 336.9 586.8 335.9V331.4C586.8 330.5 586.2 329.3 585.3 328.8Z" fill="#E0E0E0"/>
<path d="M592.2 332.7L590.5 331.8C589.6 331.3 588.9 331.7 588.9 332.6V337.1C588.9 338.1 589.6 339.3 590.4 339.7L592.1 340.7C593 341.2 593.7 340.8 593.7 339.9V335.4C593.7 334.4 593 333.2 592.2 332.7Z" fill="#E0E0E0"/>
<path d="M599 336.7L597.3 335.7C596.4 335.2 595.8 335.6 595.8 336.6V341.1C595.8 342 596.4 343.2 597.3 343.7L599 344.7C599.8 345.2 600.5 344.8 600.5 343.8V339.3C600.5 338.4 599.8 337.2 599 336.7Z" fill="#E0E0E0"/>
<path d="M605.8 340.6L604.1 339.7C603.3 339.2 602.6 339.6 602.6 340.5V345C602.6 346 603.3 347.2 604.1 347.6L605.8 348.6C606.7 349.1 607.3 348.7 607.3 347.8L607.4 343.3C607.4 342.3 606.7 341.1 605.8 340.6Z" fill="#E0E0E0"/>
<path d="M612.7 344.6L611 343.6C610.1 343.1 609.5 343.5 609.5 344.5L609.4 349C609.4 349.9 610.1 351.1 611 351.6L612.7 352.6C613.5 353.1 614.2 352.7 614.2 351.7V347.2C614.2 346.3 613.5 345.1 612.7 344.6Z" fill="#E0E0E0"/>
<path opacity="0.3" d="M578.5 324.8L576.8 323.9C575.9 323.4 575.2 323.8 575.2 324.7V329.2C575.2 330.2 575.9 331.4 576.7 331.8L578.5 332.8C579.3 333.3 580 332.9 580 332V327.5C580 326.5 579.3 325.3 578.5 324.8Z" fill="black"/>
<path opacity="0.3" d="M592.2 332.7L590.5 331.8C589.6 331.3 588.9 331.7 588.9 332.6V337.1C588.9 338.1 589.6 339.3 590.4 339.7L592.1 340.7C593 341.2 593.7 340.8 593.7 339.9V335.4C593.7 334.4 593 333.2 592.2 332.7Z" fill="black"/>
<path opacity="0.3" d="M599 336.7L597.3 335.7C596.4 335.2 595.8 335.6 595.8 336.6V341.1C595.8 342 596.4 343.2 597.3 343.7L599 344.7C599.8 345.2 600.5 344.8 600.5 343.8V339.3C600.5 338.4 599.8 337.2 599 336.7Z" fill="black"/>
<path opacity="0.3" d="M612.7 344.6L611 343.6C610.1 343.1 609.5 343.5 609.5 344.5L609.4 349C609.4 349.9 610.1 351.1 611 351.6L612.7 352.6C613.5 353.1 614.2 352.7 614.2 351.7V347.2C614.2 346.3 613.5 345.1 612.7 344.6Z" fill="black"/>
<path d="M619.5 348.5L617.8 347.6C617 347.1 616.3 347.5 616.3 348.4V352.9C616.3 353.9 616.9 355.1 617.8 355.5L619.5 356.5C620.3 357 621 356.6 621 355.7V351.2C621 350.2 620.4 349 619.5 348.5Z" fill="#E0E0E0"/>
<path d="M669.2 381.1C669.2 378 667 374.2 664.4 372.7C663 371.9 661.9 371.8 661 372.3H660.9L657 374.6C657.9 374.1 659.1 374.2 660.4 374.9C663.1 376.5 665.2 380.2 665.2 383.3C665.2 384.8 664.7 385.9 663.8 386.4L667.6 384.3C667.733 384.233 667.833 384.167 667.9 384.1C668.7 383.5 669.2 382.5 669.2 381.1Z" fill="#E0E0E0"/>
<path opacity="0.2" d="M669.2 381.1C669.2 378 667 374.2 664.4 372.7C663 371.9 661.9 371.8 661 372.3H660.9L657 374.6C657.9 374.1 659.1 374.2 660.4 374.9C663.1 376.5 665.2 380.2 665.2 383.3C665.2 384.8 664.7 385.9 663.8 386.4L667.6 384.3C667.733 384.233 667.833 384.167 667.9 384.1C668.7 383.5 669.2 382.5 669.2 381.1Z" fill="black"/>
<path d="M665.2 383.3C665.2 380.2 663.1 376.5 660.4 374.9C659.1 374.2 657.9 374.1 657 374.6C656.1 375 655.5 376.1 655.5 377.7C655.5 380.8 657.7 384.5 660.4 386.1C661.7 386.8 662.8 386.9 663.7 386.5C663.767 386.433 663.8 386.4 663.8 386.4C664.7 385.9 665.2 384.8 665.2 383.3Z" fill="#E0E0E0"/>
<path opacity="0.1" d="M665.2 383.3C665.2 380.2 663.1 376.5 660.4 374.9C659.1 374.2 657.9 374.1 657 374.6C656.1 375 655.5 376.1 655.5 377.7C655.5 380.8 657.7 384.5 660.4 386.1C661.7 386.8 662.8 386.9 663.7 386.5C663.767 386.433 663.8 386.4 663.8 386.4C664.7 385.9 665.2 384.8 665.2 383.3Z" fill="black"/>
<path d="M650.1 369.6C650.1 366.5 647.9 362.7 645.3 361.2C643.9 360.4 642.8 360.3 641.9 360.8H641.8C641.8 360.8 641.8 360.833 641.8 360.9L637.9 363.1C638.8 362.6 640 362.7 641.3 363.4C644 365 646.1 368.7 646.1 371.8C646.1 373.3 645.6 374.4 644.7 374.9L648.5 372.8C648.633 372.733 648.733 372.667 648.8 372.6C649.6 372 650.1 371 650.1 369.6Z" fill="#E0E0E0"/>
<path opacity="0.2" d="M650.1 369.6C650.1 366.5 647.9 362.7 645.3 361.2C643.9 360.4 642.8 360.3 641.9 360.8H641.8C641.8 360.8 641.8 360.833 641.8 360.9L637.9 363.1C638.8 362.6 640 362.7 641.3 363.4C644 365 646.1 368.7 646.1 371.8C646.1 373.3 645.6 374.4 644.7 374.9L648.5 372.8C648.633 372.733 648.733 372.667 648.8 372.6C649.6 372 650.1 371 650.1 369.6Z" fill="black"/>
<path d="M646.1 371.8C646.1 368.7 644 365 641.3 363.4C640 362.7 638.8 362.6 637.9 363.1C637 363.5 636.4 364.6 636.4 366.2C636.4 369.3 638.6 373 641.3 374.6C642.5 375.3 643.7 375.4 644.6 375C644.667 374.933 644.7 374.9 644.7 374.9C645.6 374.4 646.1 373.3 646.1 371.8Z" fill="#E0E0E0"/>
<path opacity="0.1" d="M646.1 371.8C646.1 368.7 644 365 641.3 363.4C640 362.7 638.8 362.6 637.9 363.1C637 363.5 636.4 364.6 636.4 366.2C636.4 369.3 638.6 373 641.3 374.6C642.5 375.3 643.7 375.4 644.6 375C644.667 374.933 644.7 374.9 644.7 374.9C645.6 374.4 646.1 373.3 646.1 371.8Z" fill="black"/>
<path d="M793 291.4V266.4L681.5 227L570 266.4V291.8L682.2 356.6L793.8 291.8L793 291.4Z" fill="#E0E0E0"/>
<path opacity="0.4" d="M793 291.4V266.4L681.5 227L570 266.4V291.8L682.2 356.6L793.8 291.8L793 291.4Z" fill="black"/>
<path d="M806.9 232.5L681.5 160.1L556.8 232.5L682.3 304.9L806.9 232.5Z" fill="#E0E0E0"/>
<path opacity="0.1" d="M806.9 232.5L681.5 160.1L556.8 232.5L682.3 304.9L806.9 232.5Z" fill="black"/>
<path d="M682.3 304.9L682.1 348.6L806.7 276.2L806.9 232.5L682.3 304.9Z" fill="#E0E0E0"/>
<path opacity="0.2" d="M682.3 304.9L682.1 348.6L806.7 276.2L806.9 232.5L682.3 304.9Z" fill="black"/>
<path d="M556.8 232.5L556.7 276.2L682.1 348.6L682.3 304.9L556.8 232.5Z" fill="#E0E0E0"/>
<path d="M565.4 249.3L565.3 269.7L624 303.6L624.1 283.2L565.4 249.3Z" fill="#F0F0F0"/>
<path d="M571.6 259.9L569.9 259C569.1 258.5 568.4 258.9 568.4 259.8V264.3C568.4 265.3 569.1 266.4 569.9 266.9L571.6 267.9C572.5 268.4 573.1 268 573.1 267.1L573.2 262.6C573.2 261.6 572.5 260.4 571.6 259.9Z" fill="#E0E0E0"/>
<path d="M578.5 263.9L576.8 262.9C575.9 262.4 575.2 262.8 575.2 263.8V268.3C575.2 269.2 575.9 270.4 576.7 270.9L578.5 271.9C579.3 272.4 580 272 580 271V266.5C580 265.6 579.3 264.4 578.5 263.9Z" fill="#E0E0E0"/>
<path d="M585.3 267.8L583.6 266.9C582.8 266.4 582.1 266.8 582.1 267.7V272.2C582.1 273.2 582.7 274.3 583.6 274.8L585.3 275.8C586.1 276.3 586.8 275.9 586.8 275V270.5C586.8 269.5 586.2 268.3 585.3 267.8Z" fill="#E0E0E0"/>
<path d="M592.2 271.8L590.5 270.8C589.6 270.3 588.9 270.7 588.9 271.7V276.2C588.9 277.1 589.6 278.3 590.4 278.8L592.1 279.8C593 280.3 593.7 279.9 593.7 278.9V274.4C593.7 273.5 593 272.3 592.2 271.8Z" fill="#E0E0E0"/>
<path d="M599 275.7L597.3 274.8C596.4 274.3 595.8 274.7 595.8 275.6V280.1C595.8 281.1 596.4 282.2 597.3 282.7L599 283.7C599.8 284.2 600.5 283.8 600.5 282.9V278.4C600.5 277.4 599.8 276.2 599 275.7Z" fill="#E0E0E0"/>
<path d="M605.8 279.7L604.1 278.7C603.3 278.2 602.6 278.6 602.6 279.6V284.1C602.6 285 603.3 286.2 604.1 286.7L605.8 287.7C606.7 288.2 607.3 287.8 607.3 286.8L607.4 282.3C607.4 281.4 606.7 280.2 605.8 279.7Z" fill="#E0E0E0"/>
<path d="M612.7 283.6L611 282.6C610.1 282.2 609.5 282.6 609.5 283.5L609.4 288C609.4 289 610.1 290.1 611 290.6L612.7 291.6C613.5 292.1 614.2 291.7 614.2 290.8V286.3C614.2 285.3 613.5 284.1 612.7 283.6Z" fill="#E0E0E0"/>
<path opacity="0.3" d="M578.5 263.9L576.8 262.9C575.9 262.4 575.2 262.8 575.2 263.8V268.3C575.2 269.2 575.9 270.4 576.7 270.9L578.5 271.9C579.3 272.4 580 272 580 271V266.5C580 265.6 579.3 264.4 578.5 263.9Z" fill="black"/>
<path opacity="0.3" d="M592.2 271.8L590.5 270.8C589.6 270.3 588.9 270.7 588.9 271.7V276.2C588.9 277.1 589.6 278.3 590.4 278.8L592.1 279.8C593 280.3 593.7 279.9 593.7 278.9V274.4C593.7 273.5 593 272.3 592.2 271.8Z" fill="black"/>
<path opacity="0.3" d="M599 275.7L597.3 274.8C596.4 274.3 595.8 274.7 595.8 275.6V280.1C595.8 281.1 596.4 282.2 597.3 282.7L599 283.7C599.8 284.2 600.5 283.8 600.5 282.9V278.4C600.5 277.4 599.8 276.2 599 275.7Z" fill="black"/>
<path opacity="0.3" d="M612.7 283.6L611 282.6C610.1 282.2 609.5 282.6 609.5 283.5L609.4 288C609.4 289 610.1 290.1 611 290.6L612.7 291.6C613.5 292.1 614.2 291.7 614.2 290.8V286.3C614.2 285.3 613.5 284.1 612.7 283.6Z" fill="black"/>
<path d="M619.5 287.6L617.8 286.6C617 286.1 616.3 286.5 616.3 287.5V292C616.3 292.9 616.9 294.1 617.8 294.6L619.5 295.6C620.3 296.1 621 295.7 621 294.7V290.2C621 289.2 620.4 288.1 619.5 287.6Z" fill="#E0E0E0"/>
<path d="M669.2 320.1C669.2 317 667 313.3 664.4 311.7C663 311 661.9 310.9 661 311.3L660.9 311.4L657 313.6C657.9 313.1 659.1 313.2 660.4 314C663.1 315.5 665.2 319.3 665.2 322.4C665.2 323.9 664.7 324.9 663.8 325.4L667.6 323.3C667.733 323.233 667.833 323.167 667.9 323.1C668.7 322.6 669.2 321.5 669.2 320.1Z" fill="#E0E0E0"/>
<path opacity="0.2" d="M669.2 320.1C669.2 317 667 313.3 664.4 311.7C663 311 661.9 310.9 661 311.3L660.9 311.4L657 313.6C657.9 313.1 659.1 313.2 660.4 314C663.1 315.5 665.2 319.3 665.2 322.4C665.2 323.9 664.7 324.9 663.8 325.4L667.6 323.3C667.733 323.233 667.833 323.167 667.9 323.1C668.7 322.6 669.2 321.5 669.2 320.1Z" fill="black"/>
<path d="M665.2 322.4C665.2 319.3 663.1 315.5 660.4 314C659.1 313.2 657.9 313.1 657 313.6C656.1 314.1 655.5 315.2 655.5 316.7C655.5 319.8 657.7 323.6 660.4 325.1C661.7 325.9 662.8 326 663.7 325.5C663.767 325.5 663.8 325.467 663.8 325.4C664.7 324.9 665.2 323.9 665.2 322.4Z" fill="#E0E0E0"/>
<path opacity="0.1" d="M665.2 322.4C665.2 319.3 663.1 315.5 660.4 314C659.1 313.2 657.9 313.1 657 313.6C656.1 314.1 655.5 315.2 655.5 316.7C655.5 319.8 657.7 323.6 660.4 325.1C661.7 325.9 662.8 326 663.7 325.5C663.767 325.5 663.8 325.467 663.8 325.4C664.7 324.9 665.2 323.9 665.2 322.4Z" fill="black"/>
<path d="M650.1 308.6C650.1 305.5 647.9 301.8 645.3 300.2C643.9 299.5 642.8 299.4 641.9 299.9H641.8L637.9 302.1C638.8 301.6 640 301.7 641.3 302.5C644 304 646.1 307.8 646.1 310.9C646.1 312.4 645.6 313.4 644.7 313.9L648.5 311.8C648.633 311.733 648.733 311.667 648.8 311.6C649.6 311.1 650.1 310.1 650.1 308.6Z" fill="#E0E0E0"/>
<path opacity="0.2" d="M650.1 308.6C650.1 305.5 647.9 301.8 645.3 300.2C643.9 299.5 642.8 299.4 641.9 299.9H641.8L637.9 302.1C638.8 301.6 640 301.7 641.3 302.5C644 304 646.1 307.8 646.1 310.9C646.1 312.4 645.6 313.4 644.7 313.9L648.5 311.8C648.633 311.733 648.733 311.667 648.8 311.6C649.6 311.1 650.1 310.1 650.1 308.6Z" fill="black"/>
<path d="M646.1 310.9C646.1 307.8 644 304 641.3 302.5C640 301.7 638.8 301.6 637.9 302.1C637 302.6 636.4 303.7 636.4 305.2C636.4 308.3 638.6 312.1 641.3 313.6C642.5 314.4 643.7 314.5 644.6 314C644.667 314 644.7 313.967 644.7 313.9C645.6 313.4 646.1 312.4 646.1 310.9Z" fill="#E0E0E0"/>
<path opacity="0.1" d="M646.1 310.9C646.1 307.8 644 304 641.3 302.5C640 301.7 638.8 301.6 637.9 302.1C637 302.6 636.4 303.7 636.4 305.2C636.4 308.3 638.6 312.1 641.3 313.6C642.5 314.4 643.7 314.5 644.6 314C644.667 314 644.7 313.967 644.7 313.9C645.6 313.4 646.1 312.4 646.1 310.9Z" fill="black"/>
<path d="M729.7 513.1H744C744 513.1 760.6 622.3 761.8 643.3C761.8 643.8 761.4 644.4 760.7 644.8C759.3 645.6 757 645.6 755.5 644.8C754.9 644.4 754.6 643.9 754.5 643.5C752.5 631 729.7 513.1 729.7 513.1Z" fill="#37474F"/>
<path opacity="0.3" d="M744 513.1C744 513.1 744.7 517.8 745.8 525.3C743.5 530.3 738.6 535.6 734 535.7C732.3 526.5 729.7 513.1 729.7 513.1H744Z" fill="black"/>
<path d="M745.7 604.7H731.4C731.4 604.7 714.8 714 713.6 734.9C713.6 735.5 714 736 714.7 736.4C716.1 737.2 718.4 737.2 719.8 736.4C720.5 736 720.8 735.6 720.8 735.1H720.9C722.9 722.6 745.7 604.7 745.7 604.7Z" fill="#37474F"/>
<path opacity="0.3" d="M731.4 604.7C731.4 604.7 730.7 609.4 729.5 617C733.8 618.7 738.3 619.6 742.8 619.7C744.6 610.5 745.7 604.7 745.7 604.7H731.4Z" fill="black"/>
<path d="M808.2 557.4H822.5C822.5 557.4 839.2 666.6 840.3 687.6C840.3 688.1 839.9 688.7 839.2 689.1C837.8 689.9 835.5 689.9 834.1 689.1C833.5 688.7 833.2 688.2 833.1 687.8H833C831 675.3 808.2 557.4 808.2 557.4Z" fill="#37474F"/>
<path opacity="0.3" d="M822.5 557.4C822.5 557.4 823.2 562.1 824.4 569.6C822.1 574.6 817.1 579.9 812.6 580C810.8 570.8 808.2 557.4 808.2 557.4H822.5Z" fill="black"/>
<path d="M661 555.9H646.6C646.6 555.9 630 665.1 628.9 686.1C628.9 686.6 629.2 687.2 629.9 687.6C631.4 688.4 633.7 688.4 635.1 687.6C635.7 687.2 636 686.7 636.1 686.3C638.1 673.8 661 555.9 661 555.9Z" fill="#37474F"/>
<path opacity="0.3" d="M646.6 555.9C646.6 555.9 645.9 560.6 644.8 568.1C647.2 571 652.6 575.5 657.2 575.6C658.9 566.4 661 555.9 661 555.9H646.6Z" fill="black"/>
<path d="M817.5 460.3L811.2 540L818.9 545.7L825.8 463.7L817.5 460.3Z" fill="#37474F"/>
<path d="M736.8 414.8L730.5 494.4L738.1 500.2L745 418.1L736.8 414.8Z" fill="#37474F"/>
<path d="M717.5 484.1C717.5 484.1 669.6 497.5 632.7 533V547.5C639.5 555.7 691.3 596 745.7 612.8C782.1 596 818.1 567.9 824.3 560.2V545.7C810.6 519 717.5 484.1 717.5 484.1Z" fill="#E40070"/>
<path opacity="0.2" d="M632.7 533V547.5C639.5 555.7 691.3 596 745.7 612.8V598.2C691.3 581.5 639.5 541.2 632.7 533Z" fill="white"/>
<path opacity="0.2" d="M745.7 598.2V612.8C782.1 596 818.1 567.9 824.3 560.2V545.7C818.1 553.4 782.1 581.5 745.7 598.2Z" fill="black"/>
<path d="M843.4 444C843.4 442.9 843.1 441.7 842.5 440.7C810.6 390.7 744.5 375.3 729.8 379.1L723 386V421.9C774 428.3 817.7 461.6 835.4 487.2L837.7 486.3C841.2 485 843.4 481.6 843.4 477.9V444Z" fill="#E40070"/>
<path opacity="0.1" d="M843.4 444C843.4 446.5 841.9 449 839.3 450L835.4 451.4V487.2L837.7 486.3C841.2 485 843.4 481.6 843.4 477.9V444Z" fill="black"/>
<path opacity="0.3" d="M835.4 451.4L839.3 450C841.9 449 843.4 446.5 843.4 444C843.4 442.9 843.1 441.7 842.5 440.7C810.6 390.7 744.5 375.3 729.8 379.1L723 386C737.7 383.3 810.3 397.8 835.4 451.4Z" fill="white"/>
<path opacity="0.3" d="M723 386V421.9C774 428.3 817.7 461.6 835.4 487.2V451.4C810.3 397.8 737.7 383.3 723 386Z" fill="black"/>
<path d="M627.5 771L629.5 782.8C638.9 778.4 641.9 773.3 641.9 773.3C642.2 764.2 642 754.8 642 750.2C639.5 755.8 634 759.5 630.6 764.6C629.2 766.6 628.3 768.7 627.5 771Z" fill="#E40070"/>
<path d="M624.4 781.6L629.5 782.8L627.5 771C626.2 774.4 625.4 778 624.4 781.6Z" fill="#E40070"/>
<path opacity="0.2" d="M627.5 771L629.5 782.8C638.9 778.4 641.9 773.3 641.9 773.3C642.2 764.2 642 754.8 642 750.2C639.5 755.8 634 759.5 630.6 764.6C629.2 766.6 628.3 768.7 627.5 771Z" fill="black"/>
<path opacity="0.3" d="M624.4 781.6L629.5 782.8L627.5 771C626.2 774.4 625.4 778 624.4 781.6Z" fill="black"/>
<path d="M642.4 737.1C641.5 733.9 640.1 730.9 638.5 728C638.6 732.8 636.7 737.6 634.2 741.7C630.8 747.2 626.2 751.9 623 757.4C619 764.2 617 772.1 611.8 778C606.7 783.7 598.8 786.7 591.2 786C588.4 785.7 585.5 784.8 583.7 782.6C582.9 781.6 582.5 780.3 582.5 779C579.9 781.8 577.1 784.3 574 786.4C570.6 788.8 566.5 791.3 565.9 795.5C565.4 798.9 567.8 802.2 570.8 803.9C573.8 805.6 577.4 805.9 580.8 806.1C588.3 806.6 595.8 806.4 602.9 804.3C610 802.1 616.7 797.8 620.5 791.5C622.4 788.4 623.5 785 624.4 781.6C625.4 778 626.2 774.4 627.5 771C628.3 768.7 629.2 766.6 630.6 764.6C634 759.5 639.5 755.8 642 750.2C642.1 749.9 642.3 749.7 642.4 749.4C643.8 745.5 643.6 741.1 642.4 737.1Z" fill="#E40070"/>
<path d="M591.2 786C598.8 786.7 606.7 783.7 611.8 778C617 772.1 619 764.2 623 757.4C626.2 751.9 630.8 747.2 634.2 741.7C636.7 737.6 638.6 732.8 638.5 728C639.4 724.5 641.2 720.3 640.8 719.5C631.1 718.7 624.6 716.2 613.6 714.7C610.3 725 599.3 752.1 594.4 761.7C591.2 768 587.3 773.9 582.5 779C582.5 780.3 582.9 781.6 583.7 782.6C585.5 784.8 588.4 785.7 591.2 786Z" fill="#FFA8A7"/>
<path d="M655.4 664.6C654.2 683.5 649.4 697.1 645.7 722.9C645.7 722.9 623.1 729.7 609 719.8L608.4 680.1L655.4 664.6Z" fill="#37474F"/>
<path d="M556.9 743.7L558.9 755.6C568.3 751.1 571.4 746 571.4 746C571.6 736.9 571.5 727.5 571.4 723C568.9 728.5 563.4 732.3 560 737.4C558.7 739.3 557.7 741.5 556.9 743.7Z" fill="#E40070"/>
<path d="M553.9 754.3L558.9 755.6L556.9 743.7C555.7 747.1 554.9 750.7 553.9 754.3Z" fill="#E40070"/>
<path opacity="0.2" d="M556.9 743.7L558.9 755.6C568.3 751.1 571.4 746 571.4 746C571.6 736.9 571.5 727.5 571.4 723C568.9 728.5 563.4 732.3 560 737.4C558.7 739.3 557.7 741.5 556.9 743.7Z" fill="black"/>
<path opacity="0.3" d="M553.9 754.3L558.9 755.6L556.9 743.7C555.7 747.1 554.9 750.7 553.9 754.3Z" fill="black"/>
<path d="M571.9 709.8C571 706.6 569.5 703.7 568 700.7C568 705.5 566.2 710.3 563.6 714.4C560.2 719.9 555.7 724.6 552.4 730.2C548.5 736.9 546.4 744.9 541.2 750.7C536.1 756.4 528.3 759.5 520.7 758.7C517.9 758.4 514.9 757.5 513.2 755.3C512.3 754.3 511.9 753 511.9 751.7C509.3 754.5 506.5 757 503.4 759.2C500 761.6 495.9 764.1 495.3 768.2C494.9 771.6 497.2 775 500.3 776.6C503.3 778.3 506.8 778.7 510.3 778.9C517.7 779.3 525.3 779.1 532.4 777C539.5 774.8 546.1 770.6 550 764.2C551.8 761.1 552.9 757.7 553.9 754.3C554.9 750.7 555.7 747.1 556.9 743.7C557.7 741.5 558.7 739.3 560 737.4C563.4 732.3 568.9 728.5 571.4 723C571.6 722.7 571.7 722.4 571.8 722.1C573.3 718.2 573 713.8 571.9 709.8Z" fill="#E40070"/>
<path d="M520.7 758.7C528.3 759.5 536.1 756.4 541.2 750.7C546.4 744.9 548.5 736.9 552.4 730.2C555.7 724.6 560.2 719.9 563.6 714.4C566.2 710.3 568 705.5 568 700.7C568.9 697.2 570.7 693 570.3 692.2C560.5 691.4 554 688.9 543.1 687.4C539.8 697.7 528.8 724.8 523.8 734.4C520.6 740.7 516.7 746.6 511.9 751.7C511.9 753 512.3 754.3 513.2 755.3C514.9 757.5 517.9 758.4 520.7 758.7Z" fill="#FFA8A7"/>
<path d="M592.1 642.4C587.7 660.8 580.6 673.5 572.6 698.3C572.6 698.3 549.2 701.1 536.9 689L547.5 624.3L592.1 642.4Z" fill="#37474F"/>
<path d="M735.6 591.3C749.1 585.5 810.4 555 769.8 495.8L669.3 481.4C666 512.9 637 533.6 637 533.6L735.6 591.3Z" fill="#37474F"/>
<path d="M715.4 514.1C734.8 513.1 753.7 506.6 769.8 495.8C765.8 488.6 760.7 481.2 754.3 473.5L664.6 481.6C663.733 489 663.067 496.333 662.6 503.6C678.9 511.5 697.3 515.1 715.4 514.1Z" fill="#FFA8A7"/>
<path d="M659.2 356.8C658.8 354.4 658.8 352 659.4 349.7C659.8 347.6 665.5 335.7 664.7 334.9C660 330.1 656.9 323.6 656.3 316.8C655.6 310.1 657.4 303.1 661.1 297.4C657.1 296 654.4 291.4 654.8 287.1C655.1 282.8 658.7 278.9 663 278.1C666.6 277.5 670.2 278.9 673.8 279.7C679.9 281 686.3 280.6 692.5 279.7C698.7 278.8 704.8 277.4 711.1 277C717.3 276.5 723.8 277 729.5 279.6C735.2 282.2 740 287.1 741.4 293.3C750.6 291.4 761.4 299 763.1 308.3C764.8 317.3 759.5 326.3 760.3 335.4C760.8 341.6 764.2 347.2 768.2 351.9C772.3 356.6 777 360.6 781.2 365.1C792.8 377.6 799.8 394 800.8 410.9C801.4 420.5 799.9 430.4 794.6 438.4C784.2 453.9 756.2 457.8 738.9 457.2C721.4 456.5 704.1 450.6 689.7 440.5C679.8 433.5 670.7 423.1 671.1 410.9C671.2 405.2 673.5 399.8 675 394.3C676.5 388.8 677.3 382.6 674.6 377.6C671.8 372.3 666 369.4 662.4 364.6C660.7 362.3 659.6 359.6 659.2 356.8Z" fill="#263238"/>
<path d="M683.7 402.8C686.3 405 689.9 405.4 693.3 405.4C702.5 405.4 711.7 403 719.8 398.5C726.1 394.9 731.7 390 736.1 384.2L726.6 383.3V352.7L693.6 365.5V383.2H685.1C683.4 385.4 681.9 387.7 681 390.3C679.6 394.6 680.2 400 683.7 402.8Z" fill="#FFA8A7"/>
<path d="M724.3 353.6C718.9 365.7 708.2 376.1 693.6 377.8V365.5L724.3 353.6Z" fill="#F28F8F"/>
<path d="M720.7 329.2C720.4 331.1 720.1 335 720.4 336.9C720.7 338.8 721.5 340.7 722.9 342.1C724.4 343.4 726.2 344 728.2 343.6C727.1 338.6 730.7 333 735.7 331.8C740.7 330.6 746.4 333.9 747.8 338.8C748.8 342.4 747.8 346.3 745.7 349.3C743.6 352.4 740.5 354.6 737.2 356.4C733.4 357.8 729.1 355.9 727 352.4C717.2 364.8 700.1 374.2 684 372.8C679.6 372.5 675.2 371.2 671.8 368.5C665.7 363.8 665.3 356.7 664.5 349.7C663.5 340.9 663.3 331.9 664.7 323C666.7 310.8 672.1 298.8 681.6 290.9C687.1 317.4 711.4 327.2 720.7 329.2Z" fill="#FFA8A7"/>
<path d="M687.3 326.1L676.3 339.7L686.5 343.2L687.3 326.1Z" fill="#F28F8F"/>
<path d="M695.9 349.8C693.033 350.733 690.2 351.633 687.4 352.5C688.2 354.5 691.1 355.7 693.2 355.1C695.3 354.5 696.2 352 695.9 349.8Z" fill="#F28F8F"/>
<path opacity="0.3" d="M695.9 349.8C693.033 350.733 690.2 351.633 687.4 352.5C688.2 354.5 691.1 355.7 693.2 355.1C695.3 354.5 696.2 352 695.9 349.8Z" fill="black"/>
<path d="M690.3 355C691.3 355.3 692.3 355.4 693.2 355.1C694.8 354.7 695.7 353 695.9 351.2C694.8 351.1 693.6 351.3 692.6 351.9C691.5 352.5 690.7 353.7 690.3 355Z" fill="#F28F8F"/>
<path d="M702.4 329C702.4 330.6 700.9 331.9 699.3 331.9C697.6 331.8 696.3 330.4 696.3 328.7C696.4 327 697.8 325.7 699.5 325.8C701.2 325.8 702.5 327.3 702.4 329Z" fill="#263238"/>
<path d="M676.9 326.8C676.8 328.5 675.4 329.8 673.7 329.7C672 329.7 670.7 328.2 670.8 326.5C670.9 324.9 672.3 323.6 674 323.6C675.7 323.7 677 325.1 676.9 326.8Z" fill="#263238"/>
<path d="M674.5 314.5C672.167 315.967 669.833 317.433 667.5 318.9C666.9 317.3 667.6 315.2 669 314.2C670.4 313.1 673.1 313.5 674.5 314.5Z" fill="#263238"/>
<path d="M700.6 315.4C702.8 317 704.967 318.633 707.1 320.3C707.9 318.8 707.3 316.6 706 315.5C704.7 314.3 702.1 314.4 700.6 315.4Z" fill="#263238"/>
<path d="M773.6 497.2C756.5 471.6 755.5 453.6 764 438.4C766.6 433.8 766.2 415.3 765.4 401.7C765 393 758.2 386.1 749.6 385.3L736.1 384.2C731.7 390 726.1 394.9 719.8 398.5C711.7 403 702.5 405.4 693.3 405.4C688.3 405.4 682.8 404.5 680.8 398.4C680.2 396.7 680.1 394.9 680.4 393.1C680.9 389.3 682.8 386.1 685.1 383.2H676.9C667 391.9 648.3 427.5 647.1 446.6C646.6 456.2 654 460.9 659.1 463.9C659.1 463.9 662.6 478.1 657.4 504.3C682.6 522.1 741.3 524 773.6 497.2Z" fill="#522D7D"/>
<path opacity="0.2" d="M731.7 446.4C727.1 453 720.3 458 712.6 460.2C704.9 462.5 696.4 462.1 689 459C695.3 465.1 704.9 468 713.4 465.8C721.9 463.6 729.2 454.9 731.7 446.4Z" fill="black"/>
<path d="M726.6 380.4V383.3L710.4 451.4C710.4 451.4 712.1 487.3 733.7 527.9C758.4 532.6 778.3 519.1 783.5 512.4C768.6 492.1 758.7 452.3 758.7 452.3L756.1 385.5L728.6 383.6L726.6 380.4Z" fill="#E40070"/>
<path d="M726.6 383.3V380.4L734.4 394.3C735.3 395.9 735.1 397.9 733.8 399.3L725.1 409.1L729.6 413.3C731.1 414.7 731.4 417 730.3 418.7L710.4 451.4L726.6 383.3Z" fill="#E40070"/>
<path opacity="0.3" d="M726.6 383.3V380.4L734.4 394.3C735.3 395.9 735.1 397.9 733.8 399.3L725.1 409.1L729.6 413.3C731.1 414.7 731.4 417 730.3 418.7L710.4 451.4L726.6 383.3Z" fill="white"/>
<path opacity="0.2" d="M738.4 398.6L719.6 480.3L715.7 481.7L717.4 470.7C721.2 445.8 728.3 421.6 738.4 398.6Z" fill="black"/>
<path opacity="0.2" d="M758.8 493.6L762.5 465.8C760 457.8 758.7 452.3 758.7 452.3L758.1 436.9L724.2 507.5C725.467 510.567 726.834 513.7 728.3 516.9L740 514.2C749.9 511.9 757.4 503.7 758.8 493.6Z" fill="black"/>
<path d="M661.4 508.5C661.3 485.6 661.5 459 663.7 444.2C671.1 410.9 680.7 398.5 688.9 383.2H693.6V377.8L686.2 383.2H676.9C643 423.1 643.1 445 642.9 451.4C642.7 457.7 643.9 498.4 643.9 498.4L661.4 508.5Z" fill="#E40070"/>
<path d="M674 391.9C672.8 392.8 672.1 394.3 672.3 395.8L672.9 403.8L665.2 406.8C663.4 407.5 662.3 409.3 662.4 411.1L664.4 441.4C671.6 410.3 681 398.1 688.9 383.2H693.6V377.8L674 391.9Z" fill="#E40070"/>
<g opacity="0.3">
<path d="M674 391.9C672.8 392.8 672.1 394.3 672.3 395.8L672.9 403.8L665.2 406.8C663.4 407.5 662.3 409.3 662.4 411.1L664.4 441.4C671.6 410.3 681 398.1 688.9 383.2H693.6V377.8L674 391.9Z" fill="white"/>
</g>
<path d="M344.7 530.8V726L351.6 722V526.8L344.7 530.8Z" fill="#455A64"/>
<path d="M344.7 530.8V726L337.8 722V526.8L344.7 530.8Z" fill="#37474F"/>
<path d="M351.6 582.8L513.1 489.5V482.1L351.6 575.4V582.8Z" fill="#455A64"/>
<path d="M351.6 567.6L506.2 478.1L513.1 482.1L351.6 575.4V567.6Z" fill="#37474F"/>
<path d="M795.3 596.5V791.7L802.2 787.8V592.5L795.3 596.5Z" fill="#E40070"/>
<path d="M795.3 596.5V791.7L788.4 787.8V592.5L795.3 596.5Z" fill="#37474F"/>
<path d="M626.8 693.8V889L633.7 885.1V689.8L626.8 693.8Z" fill="#E40070"/>
<path d="M626.8 693.8V889L619.9 885.1V689.8L626.8 693.8Z" fill="#37474F"/>
<path d="M633.7 745.9L795.3 652.6V645.2L633.7 738.5V745.9Z" fill="#E40070"/>
<path d="M633.7 730.6L788.4 641.2L795.3 645.2L633.7 738.5V730.6Z" fill="#37474F"/>
<g opacity="0.2">
<path d="M795.3 596.5V791.7L802.2 787.8V592.5L795.3 596.5Z" fill="white"/>
<path d="M795.3 596.5V791.7L788.4 787.8V592.5L795.3 596.5Z" fill="white"/>
<path d="M626.8 693.8V889L633.7 885.1V689.8L626.8 693.8Z" fill="white"/>
<path d="M626.8 693.8V889L619.9 885.1V689.8L626.8 693.8Z" fill="white"/>
<path d="M633.7 745.9L795.3 652.6V645.2L633.7 738.5V745.9Z" fill="white"/>
<path d="M633.7 730.6L788.4 641.2L795.3 645.2L633.7 738.5V730.6Z" fill="white"/>
</g>
<g opacity="0.2">
<path d="M344.7 530.8V726L351.6 722V526.8L344.7 530.8Z" fill="white"/>
<path d="M344.7 530.8V726L337.8 722V526.8L344.7 530.8Z" fill="white"/>
<path d="M351.6 582.8L513.1 489.5V482.1L351.6 575.4V582.8Z" fill="white"/>
<path d="M351.6 567.6L506.2 478.1L513.1 482.1L351.6 575.4V567.6Z" fill="white"/>
</g>
<path d="M626.8 675L337.7 508.5L513.1 407.2L802.2 573.7L626.8 675Z" fill="#E40070"/>
<path d="M626.8 693.8L337.7 526.8V508.5L626.8 675V693.8Z" fill="#E40070"/>
<path d="M626.8 675L802.2 573.7V592.5L626.8 693.8V675Z" fill="#E40070"/>
<path opacity="0.4" d="M626.8 675L337.7 508.5L513.1 407.2L802.2 573.7L626.8 675Z" fill="white"/>
<path opacity="0.3" d="M626.8 675L802.2 573.7V592.5L626.8 693.8V675Z" fill="white"/>
<path opacity="0.2" d="M626.8 693.8L337.7 526.8V508.5L626.8 675V693.8Z" fill="white"/>
<path opacity="0.1" d="M641.4 624C633 619.2 619.5 619.2 611.2 624C602.9 628.8 603 636.7 611.3 641.5C619.7 646.3 633.2 646.3 641.5 641.5C649.8 636.7 649.8 628.8 641.4 624Z" fill="black"/>
<path d="M648.6 593.6L625.7 594.3L602.8 593.6C601.8 609.1 604.8 624.9 609 632.6C609.7 634.3 611.2 635.9 613.5 637.2C620.3 641.1 631.2 641.1 638 637.2C640.3 635.9 641.8 634.2 642.5 632.5C646.6 624.7 649.6 609 648.6 593.6Z" fill="white"/>
<path d="M641.9 584.2C650.9 589.4 650.9 597.8 642 603C633.1 608.2 618.5 608.2 609.5 603C600.6 597.8 600.5 589.4 609.4 584.2C618.4 579.1 632.9 579.1 641.9 584.2Z" fill="#EBEBEB"/>
<path d="M638.3 586.3C645.3 590.4 645.4 596.9 638.4 601C631.4 605 620.1 605 613.1 601C606.1 596.9 606.1 590.4 613 586.3C620 582.3 631.3 582.3 638.3 586.3Z" fill="#E0E0E0"/>
<g opacity="0.1">
<path d="M638.3 586.3C645.3 590.4 645.4 596.9 638.4 601C631.4 605 620.1 605 613.1 601C606.1 596.9 606.1 590.4 613 586.3C620 582.3 631.3 582.3 638.3 586.3Z" fill="black"/>
</g>
<path d="M623.8 594.3C627.7 597.4 632.8 598.6 637.3 597.3C641.7 596.1 645.3 592.4 646.7 587.8C643.9 586.6 641.7 584.8 639.3 582.7C642.6 581.8 646.4 582 649.7 583.1C651.5 580.3 652 576.3 650.5 573.1C646.6 571.4 642 571.1 638.1 572.3C641.6 569.3 646 567.9 650.7 568.3C651.1 557 647.6 549 647.6 549C639.1 549.4 630.8 553.1 628 555.8C627.5 559.2 629 564.9 629 564.9C625.1 562.7 625 559 625 559C619.6 560.3 617.3 563 616.5 565C616.9 568.4 620 574 621.6 575.3C616.5 573.8 614.5 568.2 614.5 568.2C609.6 579.9 610.5 593.1 623.8 594.3Z" fill="#E40070"/>
<path opacity="0.2" d="M623.8 594.3C627.7 597.4 632.8 598.6 637.3 597.3C641.7 596.1 645.3 592.4 646.7 587.8C643.9 586.6 641.7 584.8 639.3 582.7C642.6 581.8 646.4 582 649.7 583.1C651.5 580.3 652 576.3 650.5 573.1C646.6 571.4 642 571.1 638.1 572.3C641.6 569.3 646 567.9 650.7 568.3C651.1 557 647.6 549 647.6 549C639.1 549.4 630.8 553.1 628 555.8C627.5 559.2 629 564.9 629 564.9C625.1 562.7 625 559 625 559C619.6 560.3 617.3 563 616.5 565C616.9 568.4 620 574 621.6 575.3C616.5 573.8 614.5 568.2 614.5 568.2C609.6 579.9 610.5 593.1 623.8 594.3Z" fill="black"/>
<path opacity="0.3" d="M623.8 594.3C627.7 597.4 632.8 598.6 637.3 597.3C641.7 596.1 645.3 592.4 646.7 587.8C643.9 586.6 641.7 584.8 639.3 582.7C642.6 581.8 646.4 582 649.7 583.1C651.5 580.3 652 576.3 650.5 573.1C646.6 571.4 642 571.1 638.1 572.3C641.6 569.3 646 567.9 650.7 568.3C651.1 557 647.6 549 647.6 549C639.1 549.4 630.8 553.1 628 555.8C627.5 559.2 629 564.9 629 564.9C625.1 562.7 625 559 625 559C619.6 560.3 617.3 563 616.5 565C616.9 568.4 620 574 621.6 575.3C616.5 573.8 614.5 568.2 614.5 568.2C609.6 579.9 610.5 593.1 623.8 594.3Z" fill="white"/>
<path d="M623.5 595.6C623.2 595.5 623 595.3 623 595C623.8 584.2 630 566.4 644.7 551.7C644.9 551.5 645.2 551.5 645.4 551.7C645.6 551.9 645.6 552.2 645.4 552.4C630.9 566.9 624.8 584.5 624 595.1C624 595.4 623.8 595.6 623.5 595.6Z" fill="#F5F5F5"/>
<path d="M627.5 600.1C624.1 602.8 619.4 603.9 615.1 602.8C610.8 601.6 607.2 598.4 605.6 594.3C608.2 593.2 610.1 591.6 612.2 589.8C609.1 589 605.5 589.1 602.4 590.1C600.5 587.6 599.8 584.1 601 581.2C604.6 579.7 608.9 579.4 612.7 580.5C609.2 577.8 605 576.5 600.6 576.9C599.4 566.8 602.2 559.6 602.2 559.6C610.4 560.1 618.4 563.5 621.2 565.9C621.9 568.9 620.9 574 620.9 574C624.4 572.1 624.3 568.8 624.3 568.8C629.4 570 631.7 572.4 632.6 574.2C632.4 577.2 629.9 582.1 628.5 583.3C633.1 582 634.6 577 634.6 577C640 587.4 639.9 599.1 627.5 600.1Z" fill="#E40070"/>
<path opacity="0.3" d="M627.5 600.1C624.1 602.8 619.4 603.9 615.1 602.8C610.8 601.6 607.2 598.4 605.6 594.3C608.2 593.2 610.1 591.6 612.2 589.8C609.1 589 605.5 589.1 602.4 590.1C600.5 587.6 599.8 584.1 601 581.2C604.6 579.7 608.9 579.4 612.7 580.5C609.2 577.8 605 576.5 600.6 576.9C599.4 566.8 602.2 559.6 602.2 559.6C610.4 560.1 618.4 563.5 621.2 565.9C621.9 568.9 620.9 574 620.9 574C624.4 572.1 624.3 568.8 624.3 568.8C629.4 570 631.7 572.4 632.6 574.2C632.4 577.2 629.9 582.1 628.5 583.3C633.1 582 634.6 577 634.6 577C640 587.4 639.9 599.1 627.5 600.1Z" fill="white"/>
<path d="M627.9 601.2C627.6 601.2 627.4 601.1 627.4 600.8C626 591.4 619.1 575.8 604.5 562.8C604.3 562.6 604.3 562.3 604.5 562.1C604.6 561.9 605 561.9 605.2 562C620 575.2 626.9 591.1 628.4 600.7C628.4 600.9 628.2 601.2 627.9 601.2Z" fill="white"/>
<path d="M484.4 501.5L552.6 461.9C556.4 459.7 562.7 459.7 566.6 461.9L679 526.8C680.9 527.9 681.8 529.3 681.9 530.6V530.7V535C681.9 535.3 681.9 535.6 681.8 535.9C681.8 535.9 681.8 535.933 681.8 536C681.667 536.267 681.5 536.567 681.3 536.9C681.3 536.967 681.267 537 681.2 537C681 537.333 680.733 537.667 680.4 538C680.4 538 680.367 538 680.3 538C679.967 538.333 679.567 538.633 679.1 538.9L610.9 578.5C610.3 578.833 609.667 579.133 609 579.4C608.733 579.467 608.467 579.533 608.2 579.6C607.867 579.667 607.533 579.733 607.2 579.8C606.8 579.933 606.4 580 606 580C605.933 580.067 605.833 580.1 605.7 580.1C605.167 580.167 604.633 580.2 604.1 580.2C603.967 580.2 603.867 580.2 603.8 580.2C603.267 580.2 602.7 580.167 602.1 580.1C602.033 580.1 601.967 580.1 601.9 580.1C601.367 580.033 600.833 579.933 600.3 579.8C600.233 579.8 600.133 579.767 600 579.7C599.533 579.567 599.1 579.433 598.7 579.3C598.567 579.3 598.467 579.267 598.4 579.2C597.867 579 597.367 578.767 596.9 578.5L484.5 513.6C483.967 513.333 483.533 513.033 483.2 512.7C483.1 512.6 483 512.5 482.9 512.3C482.7 512.1 482.4 511.9 482.3 511.7C482.2 511.6 482.1 511.4 482.1 511.3C481.9 511.1 481.8 510.8 481.7 510.6C481.7 510.5 481.7 510.3 481.6 510.2C481.6 510 481.5 509.7 481.5 509.5V505.5C481.5 504.1 482.5 502.6 484.4 501.5Z" fill="#E0E0E0"/>
<path opacity="0.3" d="M681.9 530.6C681.9 531.067 681.867 531.5 681.8 531.9C681.8 531.9 681.8 531.933 681.8 532C681.667 532.333 681.5 532.633 681.3 532.9C681.3 532.967 681.267 533 681.2 533C681 533.333 680.733 533.667 680.4 534C680.4 534 680.367 534 680.3 534C679.967 534.333 679.567 534.633 679.1 534.9L610.9 574.5C610.3 574.833 609.667 575.133 609 575.4C608.733 575.467 608.467 575.533 608.2 575.6C607.867 575.667 607.533 575.767 607.2 575.9C606.8 575.967 606.4 576.033 606 576.1C605.933 576.1 605.833 576.1 605.7 576.1C605.167 576.167 604.633 576.2 604.1 576.2C603.967 576.2 603.867 576.2 603.8 576.2C603.267 576.2 602.7 576.167 602.1 576.1C602.033 576.1 601.967 576.1 601.9 576.1C601.367 576.033 600.833 575.933 600.3 575.8C600.233 575.8 600.133 575.767 600 575.7C599.533 575.633 599.1 575.5 598.7 575.3C598.567 575.3 598.467 575.267 598.4 575.2C597.867 575 597.367 574.767 596.9 574.5L484.5 509.6C483.967 509.333 483.533 509.033 483.2 508.7C483.1 508.6 483 508.5 482.9 508.4C482.7 508.1 482.4 507.9 482.3 507.7C482.2 507.6 482.1 507.4 482.1 507.3C481.9 507.1 481.8 506.9 481.7 506.6C481.7 506.5 481.7 506.3 481.6 506.2C481.6 506 481.5 505.8 481.5 505.5V509.5C481.5 509.7 481.6 510 481.6 510.2C481.7 510.3 481.7 510.5 481.7 510.6C481.8 510.8 481.9 511.1 482.1 511.3C482.1 511.4 482.2 511.6 482.3 511.7C482.4 511.9 482.7 512.1 482.9 512.3C483 512.5 483.1 512.6 483.2 512.7C483.533 513.033 483.967 513.333 484.5 513.6L596.9 578.5C597.367 578.767 597.867 579 598.4 579.2C598.467 579.267 598.567 579.3 598.7 579.3C599.1 579.433 599.533 579.567 600 579.7C600.133 579.767 600.233 579.8 600.3 579.8C600.833 579.933 601.367 580.033 601.9 580.1C601.967 580.1 602.033 580.1 602.1 580.1C602.7 580.167 603.267 580.2 603.8 580.2C603.867 580.2 603.967 580.2 604.1 580.2C604.633 580.2 605.167 580.167 605.7 580.1C605.833 580.1 605.933 580.067 606 580C606.4 580 606.8 579.933 607.2 579.8C607.533 579.733 607.867 579.667 608.2 579.6C608.467 579.533 608.733 579.467 609 579.4C609.667 579.133 610.3 578.833 610.9 578.5L679.1 538.9C679.567 538.633 679.967 538.333 680.3 538C680.367 538 680.4 538 680.4 538C680.733 537.667 681 537.333 681.2 537C681.267 537 681.3 536.967 681.3 536.9C681.5 536.567 681.667 536.267 681.8 536C681.8 535.933 681.8 535.9 681.8 535.9C681.9 535.6 681.9 535.3 681.9 535V530.7V530.6Z" fill="black"/>
<path d="M491.1 505.5L600.3 568.6C600.4 568.7 600.6 568.7 600.8 568.8L601 568.9C601.2 569 601.4 569 601.8 569.1C602.1 569.2 602.4 569.3 602.4 569.3H602.9C603.1 569.3 603.5 569.4 603.9 569.4H604C604.4 569.4 604.7 569.3 605.1 569.3C605.367 569.233 605.6 569.2 605.8 569.2C606 569.1 606.7 568.9 606.7 568.9C607 568.8 607.3 568.8 607.5 568.6L642.6 548.2L529.8 483L491.1 505.5Z" fill="#E0E0E0"/>
<path d="M595 488.2L574.5 500.3C573.1 501.1 573.1 503.1 574.5 503.9L605.2 521.6C606.3 522.2 607.6 522.2 608.6 521.6L629.2 509.5C630.6 508.7 630.5 506.7 629.2 505.9L598.4 488.2C597.4 487.6 596.1 487.6 595 488.2Z" fill="#E0E0E0"/>
<path opacity="0.2" d="M491.1 505.5L600.3 568.6C600.4 568.7 600.6 568.7 600.8 568.8L601 568.9C601.2 569 601.4 569 601.8 569.1C602.1 569.2 602.4 569.3 602.4 569.3H602.9C603.1 569.3 603.5 569.4 603.9 569.4H604C604.4 569.4 604.7 569.3 605.1 569.3C605.367 569.233 605.6 569.2 605.8 569.2C606 569.1 606.7 568.9 606.7 568.9C607 568.8 607.3 568.8 607.5 568.6L642.6 548.2L529.8 483L491.1 505.5Z" fill="black"/>
<path opacity="0.2" d="M595 488.2L574.5 500.3C573.1 501.1 573.1 503.1 574.5 503.9L605.2 521.6C606.3 522.2 607.6 522.2 608.6 521.6L629.2 509.5C630.6 508.7 630.5 506.7 629.2 505.9L598.4 488.2C597.4 487.6 596.1 487.6 595 488.2Z" fill="black"/>
<path d="M645.7 505.9C639.5 514.3 644.6 527.6 652.6 529.1C666.2 521.4 656.5 507.1 645.7 505.9Z" fill="#263238"/>
<path d="M616.9 509.1L604.3 514.6C603 515.2 602.3 516.5 602.4 517.8C602.5 519.5 603.9 520.7 605.5 520.7H617.4L616.9 509.1Z" fill="#F28F8F"/>
<path d="M635.1 511L623.8 505.8C621 504.5 617.7 505 615.5 507.2L607.5 514.9C606.4 515.9 605.7 517.3 605.6 518.8L604.8 526.9C604.6 528.4 605.6 529.7 607 530.1C608.7 530.5 610.5 529.3 610.7 527.5L611.4 520.4L615.5 515.7L613.2 519.3C612.6 520.2 612.3 521.3 612.4 522.5L612.6 528.6C612.6 530.6 613.8 532.3 615.5 533.2L625.3 537.8C626.9 538.6 628.9 538.5 630.5 537.5C630.5 537.5 633.5 535.4 634.7 534.2C635.8 533.1 635.1 531.4 635.1 531.4L639.5 528.2L729.4 512.8L707.7 484.6L635.1 511Z" fill="#FFA8A7"/>
<path d="M635.1 531.4C630.9 533.1 628.9 532.4 628.9 532.4C629.6 530.2 629.1 526.3 629.1 526.3C630.9 529 630.9 531 630.9 531C630.9 531 632.4 531.9 635.1 531.4Z" fill="#F28F8F"/>
<path d="M756.1 385.5C747.8 384.9 740.2 390.4 738.4 398.6L719.6 480.3L707.7 484.6L645.7 505.9C656.3 513.8 652.6 529.1 652.6 529.1L729.4 512.8C742.8 510.5 753.3 500.1 755.9 486.8L771.6 405.7C773.6 395.6 766.3 386.2 756.1 385.5Z" fill="#E40070"/>
<path opacity="0.1" d="M719.6 480.3C727.9 480.4 734.4 488.9 735.2 492.1C736.8 475.4 727.1 474.7 720.3 477.4L719.6 480.3Z" fill="black"/>
<path d="M672.3 383.1C658.8 382.7 645.6 387.5 635.3 396.5L588.7 437.4C585.7 440 583.1 443.1 580.9 446.5L556.6 484.1L580.9 500.3L607 462.7L645.2 436.1C648.5 424.5 656.6 407.1 676.9 383.2L672.3 383.1Z" fill="#E40070"/>
<path opacity="0.2" d="M633.4 444.3L645.2 436.1C647.8 426.9 653.5 414 665.8 397.1C651.2 409.7 639.8 426.1 633.4 444.3Z" fill="black"/>
<path d="M466.1 422.1H466L468.7 420.8C469.7 420.4 470.8 420.4 471.8 421L585 486.8C588.5 488.8 591 492.4 591.6 496.5L603.2 570.5C603.5 572.1 602.6 573.4 601.3 574.1H601.4L598.8 575.4V575.3C597.9 575.7 596.8 575.7 595.9 575.1L482.7 509.3C479.1 507.2 476.7 503.7 476 499.6L464.4 425.6C464.1 424.1 464.9 422.8 466.1 422.1Z" fill="#E0E0E0"/>
<path d="M527.8 489.8C533.3 493 538.3 500.2 539.1 506C539.8 511.8 536 513.9 530.5 510.8C525 507.6 520 500.4 519.3 494.6C518.5 488.8 522.4 486.7 527.8 489.8Z" fill="white"/>
<path opacity="0.3" d="M601 571.6L589.3 497.6C588.7 493.5 586.2 490 582.7 487.9L469.5 422.1C468.3 421.4 467.1 421.5 466.1 422.1H466L468.7 420.8C469.7 420.4 470.8 420.4 471.8 421L585 486.8C588.5 488.8 591 492.4 591.6 496.5L603.2 570.5C603.5 572.1 602.6 573.4 601.3 574.1H601.4L598.8 575.4V575.3C600.2 574.8 601.2 573.4 601 571.6Z" fill="black"/>
</g>
<defs>
<clipPath id="clip0_102_2">
<rect width="980" height="938" fill="white"/>
</clipPath>
</defs>
</svg>
